<?xml version="1.0" encoding="UTF-8"?>
<svg enable-background="new 0 0 500 300" version="1.1" viewBox="0 0 500 300" xml:space="preserve" xmlns="http://www.w3.org/2000/svg">
	<g clip-rule="evenodd" fill="none" fill-rule="evenodd" stroke="#fff" stroke-miterlimit="10" stroke-width=".2835">
		<path d="m499.5 273.2c-0.7 0.1-1.4 0.6-2.1 0-0.3-1-0.3-2-1-2.9-0.8-0.7-0.5-1.7-0.4-2.5-0.1-0.4-0.2-0.8-0.4-1.2-0.3-0.5-0.5-1.4-1.2-1.1-0.7 0.2-0.6 1-0.5 1.6s0.2 1.2 0.3 1.9c0.1 1 0.2 2 0.4 2.9 0 0.5-0.1 1.1-0.1 1.6-0.2 0.3-0.5 0.7-0.7 1-1.6 1-2.3 2.4-1.7 4.3 0.1 0.4-0.1 1 0.1 1.4 0.1 0.3 0.1 0.6 0.2 0.9-0.3 0.4-0.3 0.8 0.1 1.4 0.6 0 1-0.3 1.3-0.7 2.4-2.3 4.3-5.1 6.2-7.7 0.1-0.4-0.1-0.7-0.5-0.9z"/>
		<path d="m467.5 246.1v-3.3c-0.4-0.6-0.9-1.2-1-2-0.5-0.9-1.1-1.7-1.3-2.8s-0.9-1.7-1.9-1.1c0-0.4-0.1-0.9-0.1-1.3-0.7-1.8-1.8-3.3-3.5-4.2-0.7-0.3-0.8-1-0.8-1.6 0.1-2-1.2-3.7-1-5.8 0-0.6-0.3-1.3-0.8-1.3-1.3-0.2-1.3-1.2-1.4-2.2-0.1-0.8-0.4-1.7-0.9-2.4 0-0.3 0.1-0.6 0.1-0.8-1.4-0.7-0.9 0.6-1.2 1.1-0.6 0.7-0.7 1.5-0.8 2.3-0.3 2-0.5 4-1.2 5.9-0.6 1.6-1.5 2.3-3.1 1.2-0.6-1.3-1.9-1.5-2.9-2.1-0.4-0.7-1.1-0.9-1.7-1.2s0 0 0 0c-0.4-0.5-1.2-0.7-0.7-1.6 0.6-0.6 0.8-1.3 0.7-2.1l0.1-0.1c1.3-0.1 1.5-0.9 1.2-2-0.4 0.1-0.7 0.1-1.1 0.2-0.1-0.1-0.2-0.2-0.4-0.2-1.6 0-3.1-0.7-4.6-1.2-0.4 0-0.6 0.2-0.9 0.4-0.4 0-0.9 0.1-1.2 0.4l0.1 0.1c-0.7 0.2-1.5 0.5-2 1.1-0.3 0.8-1 1.3-1.2 2.1-0.5 1.4-1.2 1.4-2.3 0.7-0.2-0.1-0.4-0.2-0.6-0.2-0.2-0.1-0.4-0.1-0.5-0.2-0.3-0.3-0.7-0.3-1.1-0.1h-1c-1.2 0.3-2 1.2-2.8 2.1-0.2 0.3-0.2 0.7-0.2 1l-0.9 0.9-0.1 0.1c-0.3 0.1-0.6 0.3-0.9 0.4-1.2 0.3-1.6 1.1-1.6 2.1-0.1 0.2-0.1 0.4-0.2 0.6 0 0.2-0.1 0.3-0.2 0.5-0.8 0.7-1.1 2-2.3 2.2-3.2 0.6-6.3 1.7-9.2 3-0.5 0.2-1 0.3-1.5 0.4-1.4 0.7-1.2 2.2-1.7 3.4 0 0.9 0.2 1.9 0.4 2.8-0.1 0.9-0.1 1.9-0.4 2.8 0.2 0.3 0.4 0.5 0.6 0.8 0.7 2.7 0.9 5.5 1.1 8.3 0.1 1.3-0.1 2.7-1.1 3.7-0.9 0.9-0.5 1.4 0.1 2.1 1.6 1.7 3.2 1.5 6-0.5 2.7-1 5.9 0.4 8.5-2.2 1.9-1.9 5.1-1.6 7.6-2.1 3.4-0.7 7.7 1.4 7.7 6 0 0.3 0 0.6 0.4 0.7 1-0.4 1.4-1.7 2.5-2 0.1 0.2 0.3 0.4 0.4 0.7-0.2 0.7-0.3 1.4-0.9 2-0.6 0.5 0.2 0.6 0.5 0.7 0.3-0.2 0.6-0.5 0.8-0.7 0.2 0.3 0.3 0.6 0.5 0.8 0.1 0.4 0.4 0.7 0.7 0.8 0.5 0.9 0.8 1.8 0.6 3-0.3 1.5 0.4 2.8 1.9 3.3 1 0.4 1.7 0.9 2.3 1.7 1.1-0.5 2.1-0.9 3.2-1.4 0.9 2.4 0.9 2.4 2.8 1 1-0.7 1.9-1.3 3.2-1.3 1.1 0 1.6-0.6 1.9-1.8 0.7-3.4 2.6-6.4 4.8-8.7 2.9-3.1 3.5-7 4.9-10.7-0.5-0.7-0.7-1.4-0.4-2.2zm-52.8 11.6c-0.1 0-0.3 0.1-0.4 0.1 0.2-0.1 0.3-0.1 0.4-0.1z"/>
		<path d="m285.6 20.4v0.8c0 0.3 0.3 0.3 0.4 0.4 0.3 0 0.6 0 0.9-0.1 0.1-0.1 0.3-0.1 0.4-0.3 0.3 0.1 0.5 0.1 0.8 0.1 0.1-0.1 0.2-0.1 0.3-0.2 1.2 0.8 1.9-0.1 2.6-0.9 0.6-0.6 1.3-0.9 2.1-0.8v-0.4c0.1 0 0.2-0.1 0.3-0.1 0.1-0.6-0.6-1.1-0.3-1.8 0.4-1-0.5-1.3-1-1.5-0.9-0.3-0.7 0.7-0.9 1.2s-0.1 1.1-0.2 1.6c-0.3 0.2-0.6 0.3-0.9 0.5-0.3-0.4-0.6-0.8-0.9-1.3 0.7-1.2-0.4-1.5-0.9-2.2-0.1-0.4-0.3-0.8-0.4-1.2-0.4-0.1-0.8-0.3-1.1-0.4-0.2 0.6-0.3 1.1-0.5 1.7-0.1 0.3-0.3 0.5-0.4 0.8-0.6 0.5 0.8 1.3-0.3 1.7 0 0.2-0.1 0.3-0.1 0.5v0.8c0 0.5-0.1 0.8 0.1 1.1z"/>
		<path d="m292.4 12c-0.1-0.1-0.1-0.3-0.2-0.3s-0.2 0.1-0.3 0.2c0.1 0.1 0.1 0.2 0.2 0.3 0.1-0.1 0.2-0.1 0.3-0.2z"/>
		<path d="m398.5 14.3c0.1-0.1 0.3-0.2 0.4-0.3 0.6-0.7 0.4-1.6-0.3-1.7-1.5-0.2-3-1.1-4.6-0.1-0.5 0.3-0.4 0.8-0.4 1.3 1.5 1.2 3.1 1.5 4.9 0.8z"/>
		<path d="m488.2 280.5c-0.2 1.3-1.2 1.9-2.1 2.7-0.4 0.4-0.7 0.9-0.7 1.5 0 0.1 0 0.2 0.1 0.3l-0.2 0.2c-0.1-0.1-0.3-0.1-0.5-0.1-0.7 0-1.1 0.6-1.5 1-1.9 1.8-4.6 2.7-6.1 5-0.5 0.8-1.4 1.5-0.7 2.6 3 1.5 3.6 1.4 5.5-0.6 0.3-0.3 0.5-0.7 0.7-1 1.1-2 2.4-3.8 4.7-4.5 0.5-0.4 0.9-1 1.1-1.7 0-0.1 0.1-0.2 0.1-0.3 0.1-1 1.1-1.1 1.6-1.7 0.9-0.6 0.5-1.6 0.9-2.4-1 0.1-1.5-1.9-2.9-1z"/>
		<path d="m462.2 214.8c1.2 1 2.6 0.7 4 0.9-0.3-0.8-0.7-1.3-1.4-1.3-0.7-0.9-1.4-1.9-2.1-2.8-0.3-0.4-1-0.9-0.6-1.4 1.1-1.4-0.1-1.6-0.9-2-0.3-0.2-0.6-0.3-0.9-0.5-0.1-0.1-0.2-0.3-0.4-0.4 0-0.1-0.1-0.2-0.1-0.2 0-0.7-0.4-1-1.1-1.1-0.3-0.1-0.6-0.2-0.9-0.2-0.3-0.3-0.7-0.5-1-0.8-0.4-0.5-0.9-0.7-1.5-0.7-0.5-0.2-1.1-0.4-1.6-0.6-1.1-0.9-2.6-0.6-3.8-1.3-0.4 0.1-0.7 0-0.9-0.3-1-0.9-1.9-1.4-2.5 0.3-1.3 0.2-1.7 1.3-2.5 2.1-0.6-0.4-1.2-0.8-1.7-1.2-0.5-1.1 0.2-2.3-0.4-3.3h0.1c-1.3-0.5-2.7-1.5-3.9 0.3v0.1c-0.1 0-0.2 0-0.3 0.1v0.8c0.6 0.5 1.1 0.9 1.7 1.4v0.2c-0.1 0.1-0.2 0.1-0.3 0.2-0.5 1.9 0.1 2.9 1.8 3 0.7 0 1.3 0.3 2 0.5 1.7 0.4 3.2 1.2 4.8 1.6h0.1c0.1 0.1 0.2 0.1 0.3 0.2 0.1 0.4 0.3 0.8 0.4 1.1 0 0.5 0 1-0.1 1.6-0.4 0.3-0.7 0.6-1.1 0.9 0.1 0.2 0.3 0.3 0.4 0.5 1.1 0.5 2.3-0.4 3.3 0.3v0.3c1 1.3 2.5 1.3 3.9 1.2 0.9-0.1 1.1-0.3 0.8-0.9 0.9-0.9 1.4-2.8 3.2-1 0.4 0 0.8 0.1 1.2 0.1 0.3 0.8 0.8 1.5 1.7 1.7 0 0 0 0.4 0.3 0.6z"/>
		<path d="m469.9 204.9c-1.2 0.6-1.8 2.2-3.4 2.2h-0.4c-0.6 0.7-1.6 0.1-2.3 0.9 2 1.7 3.8 1 5.6-0.1 0.2-0.4 0.3-0.8 0.5-1.2h0.2 1c0-0.3 0-0.5 0.1-0.8-0.4-0.4-0.5-1.1-1.3-1z"/>
		<path d="m451.9 276.9c-1.5 0.2-3.1-1.3-3.9-0.8-1.3 0.7 0.1 2.8-0.6 3.9-0.1 2.1 0.7 3.4 1.7 2.8 1.9-1 3.1-2.6 3.6-4.7 0.2-0.7-0.2-1.2-0.8-1.2z"/>
		<path d="m453.1 274.7c0 0.2 0.1 0.4 0.2 0.5 0.1-0.1 0.2-0.3 0.4-0.5l-0.4-0.4c-0.1 0.2-0.2 0.3-0.2 0.4z"/>
		<path d="m455.2 96.1c1-0.2 0.7-1.3 1.2-1.9v-0.3c-0.4 0.1-0.8 0.3-1.1 0.4 0.2 0.6-0.5 1.1-0.1 1.8z"/>
		<path d="m466 79.7z"/>
		<path d="m463.6 77.5c0.7 1.5 1.4 2 2.4 2.2-0.4-0.9-1.1-1.5-2.4-2.2z"/>
		<path d="m266 24.9c0.4-0.1 0.8-0.3 0.9-0.7 0-0.4-0.2-0.5-0.5-0.4-0.4 0.1-0.8 0.3-0.9 0.7-0.1 0.3 0.2 0.4 0.5 0.4z"/>
		<path d="m283.5 23.8c0.3-0.2 0.6-0.3 0.9-0.5-0.4-0.9-0.9-0.7-1.3 0 0.2 0.2 0.3 0.4 0.4 0.5z"/>
		<path d="m192.5 10.6c0.3 0.2 0.4-0.2 0.5-0.4-0.3-0.1-0.5-0.3-0.8-0.4 0.1 0.3 0.1 0.7 0.3 0.8z"/>
		<path d="m278.1 21.3c1.3 0.2 0.7-0.8 0.8-1.4-0.1 0.1-0.1 0.2-0.2 0.3 0-0.1 0.1-0.2 0.2-0.3 0.3-0.1 0.6-0.3 0.9-0.4 0 0.3 1.1 0.3 0.2 1-0.6 0.5-0.4 1.6 0.2 2.2 0.3 0.4 1.1 0.5 1.3 0.1 0.6-1.3 2-2.1 1.7-3.8-0.4-0.4-0.5-1.1-1.2-0.9-0.5 0.2-0.5 0.7-0.5 1.2-0.4 0-0.9 0.1-1.3 0.1-0.1-0.1-0.1-0.1-0.2-0.1-0.9-0.7-1.7-0.3-2.3 0.5s-0.5 1.2 0.4 1.5z"/>
		<path d="m439.4 263c-0.3 0-0.5 0.1-0.8 0.1 0 0.6 0.4 0.6 0.8 0.8 0.3-0.2 0.7-0.2 0.6-0.6 0-0.1-0.3-0.2-0.6-0.3z"/>
		<path d="m292.3 22.2c0.2-0.3 0.4-0.6 0.2-0.9-0.1-0.1-0.4-0.2-0.5-0.1-0.4 0.2-0.1 0.6-0.2 0.9 0.1 0 0.3 0 0.5 0.1z"/>
		<path d="m323.1 12.3v0.4c-0.2 0.1-0.4 0.3-0.6 0.4 0.1 0.2 0.1 0.3 0.2 0.5 0.1 1 0.7 1.7 1.8 1.6 1.3-0.1 2.2 0.6 3.2 1.3 0.3 0 0.6 0 0.8-0.1 1.2-0.2 2.3 0.2 3.5 0.3 0.9 0 2.1-0.3 1.4-1.5-0.6-0.9-0.9-1.8-1.3-2.8-0.6-1.4-1.6-2.2-3.1-1.4-0.3-0.5-0.7-0.5-1.2-0.4-0.2-0.1-0.3-0.3-0.5-0.4-0.4-0.7-0.7-1.4-1.2-1.9-0.8-0.9-1.8-1.9-3-2-0.7-0.1-1.1 1.1-1.2 1.8-0.1 1.5-0.5 3.2 1.2 4.2z"/>
		<path d="m335.2 14.5c0.2 1.2 0.5 2.5 0.7 3.7 0.3 1.5 0.8 2.4 2.1 0.6 0.3-0.4 0.9-0.6 1.3-0.9 1.5-0.9 1.7-2 0.4-3.3-1.1-0.4-2.1-1.2-3.3-1.1 0-0.2 0-0.5-0.1-0.7-1.2-0.1-1.7 0.2-1.4 1.2 0.1 0.2 0.2 0.3 0.3 0.5z"/>
			<polygon points="336.4 12.8 336.4 12.8"/>
		<path d="m309.1 13c0.1-0.1 0.4-0.2 0.4-0.3s-0.1-0.3-0.3-0.7c-0.3 0.5-0.4 0.6-0.4 0.8 0.1 0.1 0.3 0.3 0.3 0.2z"/>
		<path d="m105.9 22.6c0.4 1.9 1.3 0.2 1.9 0.3 0.2 0.2 0.4 0.4 0.6 0.5 0 0.1-0.1 0.3-0.1 0.4-0.5 0.3-1.1 0.6-1.6 0.8-1 0.6-0.2 1.2 0 1.7 0.2 0 0.3-0.1 0.5-0.1 0.1 0.1 0.3 0.1 0.4 0.2 0.2 1 1.2 1 1.8 1.6-0.5 0.4-0.7 0.9-0.3 1.4 0.8 0.9 2 0.9 2.9 0.6 2-0.8 4-0.6 6-0.4 1.1 0.2 1.6-0.8 2.5-1.1 0-0.2 0.1-0.4 0.1-0.5 1.1-0.5 1.8-2 0.7-2.3-2.1-0.5-1.8-1.5-1.6-2.9 0.1-0.5 0.2-1.1-0.4-1.3s-1 0.2-1.5 0.6-0.5 1.1-0.7 1.7c-0.4 1.1-0.6 2.5-2.3 2.4 0-1.8-0.4-3.6-1.4-5.1-0.3-1.1-0.2-2.1 0.7-3 0.8-0.7 1.1-1.7 1-2.9-0.3 0-0.5-0.1-0.8-0.1-0.7-0.1-1.4-0.2-2.1-0.3-0.6 0.1-1.2 0.3-1.7 0.8-0.8 0.6-1.7 1.1-2.5 1.7-1.4 0.2-2.7 0.8-4 1.4s-0.5 1.4-0.1 2.1c0.9 0.2 1.5 0.9 2 1.8z"/>
		<path d="m294.1 16c0.6 0 0.9-0.6 1-1.2 0-0.6-0.2-1.4-0.9-1.5-0.8-0.1-1 0.6-1.1 1.3 0 0.7 0.2 1.4 1 1.4z"/>
		<path d="m394.4 23.8c0.7 0 1.8 0.2 1.7-0.9-0.2-1.1-1.4-1.2-2.3-1.4-0.8-0.1-1.2 0.5-1.2 1.3 0 1.3 1 1 1.8 1z"/>
		<path d="m390.8 20.5c-0.4 0-0.4 0.3-0.4 0.6 0.1 0.3 0.3 0.6 0.7 0.7 0.4-0.1 0.4-0.3 0.3-0.6 0-0.3-0.2-0.7-0.6-0.7z"/>
		<path d="m15.8 51.2c0.4 0.2 1-0.1 0.9-0.8-0.3-1.3-1.1-2.1-2.5-2.4-0.3 0.1-1 0.5-0.7 0.9 0.6 0.8 1.3 1.8 2.3 2.3z"/>
		<path d="m344 16.4c-0.6-0.1-1.2-0.2-1.7-0.3 0.4 1 1 1 1.7 0.3z"/>
		<path d="m120.5 28.8c-0.2 0.4-0.2 0.9 0 1.4 0.5 0 1.2 0 1.1-0.8s-0.6-0.7-1.1-0.6z"/>
		<path d="m117.2 15.7c0.3 0.8 0.3 1.7 1.2 2.1 1.5 1.4 2 1.3 3.3-0.8h0.8 0.3c0.8-0.2 1.4-0.9 2.2-1.1 1.1-0.8 1.4-1.8 0.9-3.1-0.3-0.5-0.5-1.1-1.3-0.9-0.3 0-0.6 0-0.8-0.1-1 0.4-2.4-0.7-3 0.9 0 0.3 0.1 0.6 0.1 0.8-0.2 0.7-0.7 0.9-1.3 0.9-0.4-0.1-0.9-0.3-1.3-0.4-1.1 0-1.2 0.7-1.1 1.7z"/>
		<path d="m114.6 19.3c-0.2 0.2-0.1 0.4 0.1 0.4 0.1 0 0.2-0.1 0.3-0.1 0-0.1 0-0.3-0.1-0.3h-0.3z"/>
		<path d="m382.6 16.6l0.6 1.5c0.2 0.1 0.5 0.2 0.7 0.2 0.4 0.1 0.8 0.3 1.2 0.4 1.5 1.4 2.4 0.6 3-0.9 1.5-1.4 4.5-1.8 3.2-5-1.1 0.1-2.2-0.9-3.3 0h-0.6c-1-0.6-1.9-0.9-2 0.8h-1.4c-0.6-0.5-1.2-1.2-1.9-0.5-0.5 0.5-0.7 1.3-0.3 2.1 0.3 0.5 0.6 0.9 0.8 1.4z"/>
		<path d="m381.5 17.9c-0.2-0.8-0.4-1.6-1.4-1.8 0.1 0.9 0.4 1.6 1.4 1.8z"/>
		<path d="m130 19.7c0.1 0.2 0.4 0.3 0.6 0.3s0.4-0.1 0.4-0.1c-0.2-0.6-0.4-0.7-0.7-0.7s-0.5 0.2-0.3 0.5z"/>
		<path d="m130 16.6c1.1 0.5 2.1 1.1 2 2.6 0 0.6-0.1 1.2 0.6 1.3 0.9 0.1 1.1-0.6 1.2-1.3 0.8-0.5 0.6-1.4 0.9-2.1 1.1-1.7 0.8-2.6-0.9-3.4-0.2-0.4-0.3-0.8-0.5-1.3-0.2-0.9-0.9-1-1.6-0.7-0.8 0.3-0.9 1-0.8 1.7 0.2 0.8 0.3 1.5-0.6 2-0.4-0.3-0.8-0.2-1 0.2-0.2 0.5 0.2 0.8 0.7 1z"/>
		<path d="m139.7 11.6c0.5 0 0.6-0.4 0.7-0.8 0-0.5-0.2-0.8-0.7-0.8s-0.8 0.3-0.7 0.8c0 0.3 0.2 0.7 0.7 0.8z"/>
		<path d="m135.2 296.5c0.4 0.2 0.7 0.4 1.1 0.6 0.5-0.1 0.7-0.4 0.4-0.9-0.5 0-1.2-1-1.5 0.3z"/>
		<path d="m455.4 67.9c0.2 0 0.5 0 0.7 0.1 0.3-0.5 0.9-1.3-0.1-1.5-0.8-0.2-0.7 0.7-0.6 1.4z"/>
		<path d="m433.6 196.7c0.1-0.4-0.7-0.4-1-0.3-1 0.3-0.8 1.2-0.7 1.9 0 0.3 0 0.7 0.1 1 0.3 0.1 0.5 0 0.4-0.4 0-0.1 0.1-0.4 0.1-0.4 1-0.1 0.9-1.1 1.1-1.8z"/>
		<path d="m430.5 203.8h-0.1c0 0.4-0.1 0.8-0.1 1.2 1.1-0.3 0.7-0.7 0.2-1.2z"/>
		<path d="m439.9 115.9c-1.3-0.1-1.3 1-1.4 1.8-0.1 1 0.4 1.7 1.4 1.9 0.5-0.1 0.9-0.2 0.9-0.8-0.1-1.4 1-1.5 1.7-1.1 1.9 1.1 2.3-0.1 2.8-1.4 1-0.1 1.9-0.3 1.2-1.7v-0.4c-0.9-0.8-2.3-0.2-3.2-0.9-0.9-0.8-1.6-2.2-3.2-2.2 0.2 1.2 0.8 2.2 0.6 3.2-0.2 0.5 0.6 1.6-0.8 1.6z"/>
		<path d="m450.1 109.4c-1.2 0.3-1.7 1-1.9 2 0.1 0 0.3 0.2 0.3 0.1 0.6-0.6 1.3-1.1 1.6-2.1z"/>
		<path d="m245.5 31.8c-0.6 2-0.6 2.1 2.2 3.1 1.5 0.5 0.8 1.7 0.8 2.7 0.1 0.2 0.2 0.4 0.3 0.5 0.3 0.2 0.6 0.4 1 0.2l0.7 0.7c0.2 0.3 0.5 0.7 0.7 1 0.4 0.5 0.5 1.3 1.3 1 0.7-0.2 0.5-1 0.6-1.6 0.6 0.1 0.7-0.4 0.8-0.9 0.1-0.6 0.1-1.2 0.4-1.7 0-0.4 0-0.8 0.1-1.3 0.1-0.7 0-1.7 0.8-1.7 1 0 0.9 1.1 0.9 1.8 0 0.8-0.1 1.7 0.9 1.8 0.8 0.1 1.7 0.6 2.3-0.3 0.6-0.8 0.5-1.7 0-2.6-0.7-1.2-1.4-2.4-2.9-2.9-0.6-0.2-0.9-0.7-0.9-1.2 0.2-0.6 0.7-1 1.3-0.8 1.5 0.5 2.5-0.3 3.7-0.9v-0.8c1.2-2.6 1.1-2.8-1.6-3.6-1.5-0.4-2.9 0.3-4.3 0.2v-0.4c-1.2-1-2.2-0.5-2.7 0.7-0.4 0.9-1.1 1.1-1.9 1.4-1.3 1.5-3.1 0-4.5 0.9-0.3 0.2-0.4 0.5-0.4 0.8v0.1c-0.5 0.2-0.3 0.7-0.1 1.2 0.3 0.9 0.6 1.7 0.5 2.6z"/>
		<path d="m218.5 16.6c-0.9-0.4-0.7 0.4-0.8 0.8 0.7 0.3 0.7-0.3 0.8-0.8z"/>
		<path d="m219.7 16.6c-0.3-0.4-0.6-0.8-0.9 0 0.3 0.2 0.6 0.2 0.9 0z"/>
		<path d="m295.5 53.5h-0.7c-0.6 0.6-0.5 1.3-0.5 2.1 1.5 1.5 3.4 2.3 5.2 3.2 0.9 0.4 1.9 0.4 2.7-0.3h0.4c0.2-1.5-1-1.9-2-2.5-0.4-0.6-0.8-1.1-1.2-1.7-1.3-3.5 0.5-6.7 0.8-10.1 0.1-0.7 0.6-0.9 1.2-1 1.1-2.8 2.8-5 5.2-6.6 1.9-1.3 1.9-2.1 0.2-3.8-1.3-0.3-2.1 0.3-2.3 1.6-0.6 0.9-1.3 1.7-2.4 1.9-1.4 0.2-2.3 1.1-3.2 2-1 2.2-3.1 4-2.5 6.8 0.1 0.5-0.3 1.1-0.4 1.6-0.3 0.2-0.5 0.4-0.8 0.5 0.3 0.7 0.6 1.3 0.8 2-1.1 1.3-0.3 2.9-0.5 4.3z"/>
		<path d="m315 47.1c0.4 0 0.8-0.2 0.8-0.7-0.1-0.5-0.3-0.8-0.8-0.8-0.4 0-0.8 0.2-0.7 0.8 0 0.3 0.2 0.7 0.7 0.7z"/>
		<path d="m324.9 45.3c-0.1 0-0.3 0.3-0.2 0.5 0.1 0.5 0.6 0.5 1 0.5v-0.5c-0.3-0.2-0.4-0.6-0.8-0.5z"/>
		<path d="m323.7 35.4c0.1 0.1 0.2 0.2 0.4 0.3 0.1-0.1 0.1-0.2 0.3-0.4-0.2-0.1-0.3-0.2-0.4-0.2-0.2 0.1-0.4 0.3-0.3 0.3z"/>
		<path d="m335 25.6c0.4-0.1 0.7-0.3 0.8-0.7 0.1-0.3-0.2-0.5-0.5-0.4s-0.6 0.3-0.6 0.7c0 0.2 0.2 0.3 0.3 0.4z"/>
		<path d="m360.9 30.5c0-0.4-0.4-0.8-0.9-0.7-0.9 0.1-0.9 0.9-1 1.6 0.7-0.2 2 1 1.9-0.9z"/>
		<path d="m359 31.4z"/>
		<path d="m0 84.9c0.6-0.4 1.5-0.6 1.8-1.7-0.6 0.3-1 0.4-1.4 0.6-0.1 0.3-0.3 0.7-0.4 1.1z"/>
		<path d="m4.5 82.2c-0.9 0-1.2 0.8-1.7 1.3-0.1 0.1-0.2 0.3-0.3 0.5h0.8c0.4-0.6 1.5-0.5 1.5-1.5 0-0.1-0.2-0.3-0.3-0.3z"/>
		<path d="m14.1 62c-0.3 0-0.7 0.1-0.6 0.6s0.5 0.6 1 0.5c0.4 0 0.6-0.3 0.6-0.7-0.1-0.6-0.6-0.4-1-0.4z"/>
			<polygon points="132.2 30.6 132.2 30.6"/>
		<path d="m125.1 24.2c-0.3-0.7-0.6-0.7-0.9 0-0.3 0.5-0.5 0.9-0.8 1.4 0.1 1.2 0.4 2.4 1.2 3.4 0.5 0.9 0.4 2 0.4 3l0.4 0.4c0.8 0.3 1.7 0.3 2.5 0l0.4-0.4c0.6-0.2 0.6 0.3 0.8 0.6-0.6 1 0.2 1.4 0.9 1.9 0.9 0.2 1.9 0.7 2.1-0.8h0.4c0.6-0.7 0.6-1.4 0-2.1-0.1-0.1-0.3-0.2-0.4-0.4 0-0.2 0-0.3 0.1-0.5-1.6 0.1-2.1-0.6-1.7-2.2 0.3-0.7 0.5-1.4 0.8-2v-0.8c-1.2-0.1-2.3-1.9-3.7-0.5-1.4 1-2.1 0.3-2.5-1z"/>
			<polygon points="135.1 36.5 135.1 36.5"/>
		<path d="m137.5 24c0.3 0.1 0.8-0.1 0.8-0.4 0.1-0.8-0.5-1.2-1.2-1.5 0.3-0.5 0.7-0.7 1.2-0.8 1-0.2 1.4-1 1.3-1.8-0.2-0.9-0.8-1.6-1.3-2.4-1.3-1.2-2.1-0.6-2.6 0.8-0.1 1.4-0.2 2.9-0.2 4.3s1.1 1.5 2 1.8z"/>
		<path d="m140.1 25.9c0.6-0.1 1.2-0.1 1.1-0.9 0-0.2-0.3-0.4-0.4-0.4-0.8 0.1-0.7 0.8-0.7 1.3z"/>
		<path d="m125.9 21.4c0.8-1.4 0.8-1.4 0.2-2.2-0.6 0.6-0.9 1.3-0.2 2.2z"/>
		<path d="m433.2 204.6c1-0.4 1.9 0.1 2.9-0.1v-0.8c-1.2-0.4-2.5-0.1-3.7 0 0.1 0.5 0.4 0.7 0.8 0.9z"/>
		<path d="m424.5 212.6c0-0.7-0.3-0.8-0.8-0.4-1.2 0.5-2.4-0.6-3.6-0.2-0.3 0.1-0.5 0.3-0.8 0.5-0.1 0.2-0.1 0.4 0.1 0.6 1.7 0.7 3.4 0.2 5.1-0.5z"/>
		<path d="m428.6 213.9c0.4-0.1 0.8-0.3 1.3-0.4 0.3-0.1 0.7-0.3 1-0.4-0.1-0.2-0.1-0.3-0.2-0.5-0.4 0.1-0.8 0.3-1.2 0.4-0.6 0.1-1.3-0.1-1.8 0.4-0.5 0.1-1 0.3-1.6 0.4-0.4 0.7-1.4 1.2-0.5 2.2l3-2.1z"/>
		<path d="m416.9 213.4c0.1 0 0.2-0.1 0.3-0.1 0.4-0.2 1.1-0.3 0.8-1.1-1.1 0.2-2.1 0.4-3.3 0.6 0.7 1 1.6 0.5 2.2 0.6z"/>
		<path d="m418.5 214.4c0.9 0.1 1.2 1.4 2.2 0.9 0.1 0 0.1-0.4 0-0.5-0.7-0.6-1.4-1-2.2-0.4z"/>
		<path d="m436.5 138.7c0.2-0.1 0.4-0.2 0.5-0.3 0.1 0.1 0.3 0.2 0.4 0.3 0.8 0.1 1.3-0.3 1.6-1.1l0.1-0.1c1.3-0.7 2.8-0.8 3.7-2.1 0.1-0.4 0.3-0.8 0.4-1.3 0.4 0.2 0.6 0.9 1.2 0.5 0.4-0.3 0.5-0.8 0.4-1.3-0.3-1-0.4-2-0.4-3 0-0.6-0.1-1.1-0.6-1.4h-0.1v-0.2c0.4-0.1 0.7-0.4 0.8-0.9 0.5-2.4-0.4-4.4-1.7-6.3-1.6-0.8-2.4-0.5-2.6 1.2-0.1 0.5-0.1 1-0.1 1.4 0.6 1.2 0 2.8 0.9 4-0.1 0.2-0.2 0.4-0.2 0.6l-0.2-0.1c-0.3 0.2-0.4 0.5-0.3 0.9 0 0 0 0.1 0.1 0.1h-0.1l-0.3 0.6c-0.8-0.1-1.7-0.2-2.5 0-0.8 0.8-0.6 2-1.3 2.8-0.9 1-2.2 0.9-3.2 1.3-0.2 0.1-0.3 0.2-0.5 0.4-0.1 0.1-0.2 0.3-0.2 0.4-0.4 0.3-0.9 0.5-0.8 1-0.1 0-0.1 0.1-0.2 0.1-0.5 0.4-0.8 0.9-0.8 1.6 0 0.1 0.1 0.2 0.2 0.3-1.2 1.6-1.2 1.6-0.4 2.5 0.1 0.3 0.3 0.5 0.4 0.8-0.4 0.6-0.3 1.1 0 1.6 0.4 0.8 0.8 1.5 1.6 0.4h0.1c0.6-0.7 0.4-1.6 0.4-2.4 0 0 0.1 0 0.1 0.1 0.5-0.1 0.9-0.4 1.2-0.8v-0.4c0.1-0.1 0.3-0.1 0.4-0.2 0.1-1 0.8-0.8 1.4-0.8v0.1c0.3 0 0.4-0.1 0.6-0.3z"/>
		<path d="m425.4 198.6c1.3 0.1 2.2-0.5 2.5-1.9-1.3 1.5-2.9 0.9-4.4 0.6s-2.7-0.1-3.7 1c-0.2 0.8 0 1.7-0.7 2.2-0.1 0.2-0.3 0.5-0.4 0.7-0.2 0.9-0.4 1.7-0.6 2.6-0.2 0.2-0.3 0.5-0.2 0.8 0.1 0.2 0.2 0.3 0.3 0.5 0.2 0.2 0.5 0.2 0.8 0.1 0.8 0.9-0.2 1.8 0.1 2.7 1.7 0.4 1.5-1 1.6-2 0.5 0.3 1.2-0.4 1.7 0.2 0.1 0.3 0.3 0.5 0.4 0.8v0.7c0.1 0 0.3 0 0.4 0.1 0.2-0.1 0.3-0.2 0.4-0.4 0.3-0.4 0.8-0.7 0.8-1.3 0.2 0 0.3-0.1 0.5-0.1 0-0.1 0-0.2-0.1-0.3-1.4-0.7-1.6-2.1-1.7-3.5 0.1-0.1 0.2-0.3 0.2-0.4 0.5-0.3 0.9-0.6 1-1.2-0.6 0-1.2 0.1-1.7 0.1l-0.1-0.1c-0.1 0-0.2-0.1-0.3-0.1-0.7 0.5-1.4 0.6-2.1 0 0-0.6-0.1-1.2 0.3-1.7 1.8-0.4 3.4-0.4 5-0.1zm-4.7 5.1v0 0l0.1 0.1s-0.1 0-0.1-0.1v0.4c-0.1-0.1-0.1-0.2-0.1-0.3 0 0 0.1 0 0.1-0.1z"/>
		<path d="m293.1 63.8c0 0.5 0.2 1 0.7 1.1 0.7 0.1 1.2-0.4 1.2-1.1 0.1-0.6-0.4-0.9-0.9-0.9-0.6-0.2-0.9 0.2-1 0.9z"/>
		<path d="m30 71.8c-0.2 0.6-1.6 1.5 0.4 1.5v-1.6c-0.2-0.3-0.3-0.3-0.4 0.1z"/>
		<path d="m409.7 212.3c0.3 0.3 0.7 0.8 1.2 0.5 0.5-0.4 0.2-1-0.2-1.4-0.1 0-0.1 0-0.2 0.1-0.2-0.5-0.7-0.7-1.1-0.9-0.3-0.3-0.6-0.5-1-0.7-1.8-1.3-3.6 0-5.4 0l-0.3 0.3c0.1-0.1 0.1-0.2 0.1-0.4-0.7-2-2.6-1.2-3.9-1.7-0.9 0.4-1.2 1.1-0.8 2 3.8 1.3 7.6 2.3 11.6 2.2z"/>
		<path d="m422.4 169.4c-0.3-1-0.9-1.3-1.8-1.3-1.1 0-1.1 0.8-1.2 1.6-0.1 0.6-0.3 1.2-0.4 1.8-0.1 0.3-0.2 0.6-0.4 0.8 0.1 0.5 0 1.1 0.4 1.6 0.2 0.5 0.3 1 0.6 1.4 0.6 0.8 1.1 1.8 2.3 1.1 1.1-0.6 0.5-1.6 0.2-2.4-0.3-0.7-0.1-1.2 0.1-1.8 0.5-0.9 0.5-1.8 0.2-2.8z"/>
		<path d="m422.8 188.4c0.3-0.1 0.6-0.3 0.8-0.4 0.1-0.5 0.3-1 0.4-1.5l2.4 0.3c0 0.3 0.1 0.5 0.1 0.8-0.1 1.3 0.6 1.8 1.7 1.7 1-0.1 0.9-0.7 0.4-1.3 1.7-0.7 1.7-1.9 1.2-3.3v-0.4c-0.5-0.4-0.9-0.9-1.6-0.5 0 0.1 0 0.2-0.1 0.4-0.7 0.2-1.2 0.7-1.6 1.3-1.2-1.3-2 0-2.9 0.5-0.7 0.5-0.3 1.5-0.8 2.2v0.2z"/>
		<path d="m404.8 200.7c0.4 1-0.3 2.6 1.3 2.9 1 0.2 1.9 0.7 2.8 1 0.5 0.3 1 0 1.5 0 0.9-0.1 1.3 0.8 2 0.9 1.1 0.3 1.4-0.6 1.6-1.4 0.9-2.6 1.6-5.4 4-7.2-1.5-0.8-1.5-2.5-1.9-3.9 0.7-0.9 1.4-1.7 2.1-2.6-0.6-0.7-1.5-1.1-2-1.9-0.3-0.4-1-0.7-1.2-0.3-1 1.9-3.3 2.4-4.3 4.3-0.7 0.6-1.3 1.2-2 1.8-1.5 0-1.6 2.1-3 2.2-1.6-0.5-2.4 0-2.1 1.6 0.1 1 0 2.2 1.2 2.6z"/>
		<path d="m384.5 174.3c0.4 1.6 1.3 2.9 1.8 4.4 0.2 0.5 0.4 1 0.6 1.4 0 1.8-0.2 3.5-0.4 5.3 0 0.6 0.3 1.1 0.7 1.4 0.3 0.2 0.7 0.4 1 0.5 0.3 0.6 0.8 1 1.3 1.4 0.1 0.1 0.2 0.1 0.2 0.2 0.1 0.7 0.3 1.4 0.7 2v0.1c-0.8 0.4-0.3 0.9-0.2 1.5 0 0.2 0.1 0.4 0.3 0.5 0.1 0 0.3 0.1 0.4 0.1 1.2 1.6 2.6 2.9 4.5 3.5 0.5-0.5 0.2-1.1 0-1.6v-1c-0.2-0.3-0.4-0.6-0.8-0.6-0.1-1.1-0.1-2.1-0.5-3.1-0.6-0.4-1.1-0.9-1.7-1.3-0.8-0.6-1.6-1.3-2.5-1.9v-0.2c0.1-1.2-0.5-2.2-1.2-3-0.8-1-1-1.9-0.5-3v-0.3c0.1 0 0.1-0.1 0.2-0.1 0.2-0.1 0.3-0.3 0.4-0.5 0.3-0.5 0.2-1.1 0.3-1.6l0.1-0.1c0.1 0.2 0.2 0.4 0.4 0.6 0.2 0.1 0.3 0.3 0.5 0.4 0.5 0.2 1.1 0.4 1.7 0.5 1.3 1.3 2.6 2.5 3.9 3.8 0 0.4 0.1 0.8 0.1 1.3 0.2 0.2 0.4 0.2 0.6 0.1 0.1 0 0.1-0.1 0.1-0.1 0.8 0.2 1.1-0.7 1.7-0.8 0.2-0.6 0.9-0.8 0.9-1.5 3.3-1.1 4-2.2 3.7-6.1-0.2-0.2-0.4-0.3-0.5-0.5v-0.4c-0.1-1.8-1.1-2.9-2.4-3.9-2.1-1.6-2.9-2.4-3-3.6 0.4-0.9 0.5-2 1.1-2.7 0.2-0.3 0.5-0.5 0.4-0.9 0.2 0.1 0.3 0.2 0.5 0.2 1.3-0.6 2.4-0.4 3.4 0.8 0.4 0.6 1.1 0.4 1.6-0.1 0.4-0.4 0.8-1 1.3-1.3 0.2-0.1 0.4-0.1 0.5-0.2 0.6-0.4 1.3-0.3 1.9-0.7 0.5-0.4 1.1-0.6 1.7-0.7 2.6-0.4 4.3-2 5.9-3.8 0.9-1 0.9-2.5 1.7-3.6 0.4-1.3 1.1-2.5 1.7-3.7 0.7-1.4 1-2.9 0.1-4.3-0.3-0.6-0.5-1.1-0.5-1.8-0.2-0.4-0.4-0.8-0.4-1.3v-0.9h-0.1v-0.4c-0.7-1.2-1.7-2.2-2.3-3.5-0.4-0.7-0.9-1.3-1.8-1.2-0.4-0.5-0.6-1-0.1-1.7 0.8-1 1.2-2.2 2.7-2.5 0.6-0.1 0.9-0.6 0.9-1.2 0-0.5-0.3-1.1-0.8-1.1-1.4 0-2.6-1.4-4.1-0.2-0.6 0.5-1.3 0-1.8-0.5-0.4-0.3-0.7-1-0.4-1.3 1.2-0.9 1.3-2.8 2.9-3.4 0.4 0.7 0.3 1.6 1 2 0.3 0.3 0.7 0.5 1.2 0.4 1-0.7 2.3-0.5 3.2-1.2l0.1 0.1c0.8 0.6 0.5 1.5 0.6 2.3 0.1 1.5 0.8 2.2 2.3 1.7 0.2-0.1 0.4-0.3 0.6-0.4 0.7 0.5 1.3 1.1 0.5 2.3 0 1 0.3 1.9 0.2 2.9-0.1 0.7 0.3 1.4 1 1.7 0.8 0.2 1.4-0.1 1.7-0.8v-0.3c0.1 0 0.1 0 0.2-0.1 1.9 0.5 2.2-0.6 2-2.1h0.3c-0.1-0.2-0.1-0.4-0.2-0.6-0.2-0.4-0.3-0.8-0.5-1.2-0.1-0.2-0.3-0.4-0.4-0.6 0 0 0.1 0 0.1-0.1 0.1-0.2 0.1-0.4-0.1-0.6l-0.1 0.1c0-1.1-0.5-1.8-1.6-2.2-0.1-0.4-0.2-0.8-0.4-1-0.1-0.3-0.4-0.7-0.5-1-0.1-0.2-0.2-0.3-0.4-0.4l-0.1-0.1c0.4-0.9 1.3-1.6 1.6-2.6l-0.1-0.1c0.4-0.4 0.6-1 0.6-1.6 0-2.4 0.7-3 3-3.2 1.8-0.1 2.6-1 2.7-2.9 0.5-0.1 0.8-0.5 1.1-1 2-4.6 3.5-9.4 2.9-14.5 0-0.2-0.1-0.4-0.1-0.7-1.3-1.3-1-3.1-1.5-4.7v0.1c0.3 0.5 0.8 0.8 1.3 1.1 0.1 0.1 0.2 0.1 0.3 0.1-0.3 1.6 0.6 4.5 1.7 5.6-0.1 0.1-0.1 0.2-0.2 0.3-0.2 1.1 0.5 2.1 0.4 3.2 0 0.2 0.1 0.4 0.2 0.6 0.4 0.8 0.6 1.7 1.3 2.3 0.1 0 0.2 0.1 0.3 0.1 0.3 0.1 0.7 0.6 0.8 0.1 0.4-1.5 1-0.8 1.7-0.2h0.3c0.7-0.8-0.3-1.1-0.4-1.7-0.3-0.4-0.7-0.9-1.2-1.1-1.6-1-0.9-2.9-1.5-4.2v-0.4l0.6-0.3c0.4 0 1 0 0.6-0.7-1.6-3.1-3.9-5.9-5-9.3 0.1-1-0.6-1.5-1.3-2.1-0.1-0.4-0.3-0.8-0.4-1.2-0.5 0-1.2-0.2-0.9 0.8 0.2 0.2 0.3 0.5 0.6 0.5-0.3 0.3-0.7 0.6-0.8 1.1-0.8-0.9-1.8-1.5-2.9-2.1-0.7-0.2-1.4-0.1-2 0.2-0.4 0.3-0.8 0.6-1.3 0.9-0.1 0.1-0.3 0.1-0.4 0.2-0.4-0.6-1.1-1-1-1.8 0.3 0 0.7 0.1 0.9-0.3 0.1-0.1 0-0.4-0.2-0.5-0.5-0.2-0.9-0.1-1.1 0.4l-0.2 0.2-0.1-0.1c-0.8-0.8-0.2-1.6 0-2.3 0.5-2.5 1.7-4.9 2.1-7.4 0.6-3.9 0.9-4.2 4.6-5 0.1-0.1 0.1-0.2 0.2-0.2 0.1-0.3 0.2-0.5 0.3-0.6 0.3-0.1 0.6-0.2 0.8-0.3 0.6 0 1.2 0.1 1.5-0.4 0.1-0.2 0.3-0.4 0.4-0.6 1.2-0.7 2.4-0.9 3.8-0.4 0.3 0.2 0.7 0.3 1 0.4-0.2 0.4-0.1 0.6 0.8 0.5 0.8-0.1 1.2-1.1 2.1-1 0 0.1 0.1 0.2 0.1 0.4h0.1 0.1c-0.2-0.5 1.8-1.3-0.2-1.6-0.5-0.2-0.9-0.6-0.9-1.1v-0.4-0.1c0.3-0.7 0.4-1.5 0.4-2.3 0.1-0.6 0.2-1.2 0.1-1.7v-0.2-0.2c0.4-0.4 0.5-1.1 0.7-1.6 1-0.8 2.1-1 3.3-0.4 0.3 0.4 0.5 0.6 0.7 0.9 0.3 0.6 0.9 0.9 1.4 1 0.6 0.1 0.6-0.4 0.7-0.8 0.2-0.2 0.3-0.4 0.6-0.6 0-0.5 0.2-1 0.4-1.4 0.2-0.2 0.4-0.4 0.8-0.4v0.4c0 0.5 0.3 1 0.1 1.5-0.9 2.5-0.6 5.2-0.9 7.8-0.2 1.7-0.5 3.1-1.7 4.3 0 0.1 0.1 0.2 0.1 0.3 1.1 0.4 1.2 1.3 0.8 2.2-0.5 1.3-0.2 2.4 0.1 3.7 0.5 1.7 1.3 3.2 2.2 4.7 1.5 2.4 3 4.7 4.4 7.1 0.3 0.6 0.4 1.6 1.2 1.4s0.9-1.1 1.1-1.9c0.2-1.3-0.8-2.4-0.3-3.7 1.1-0.3 1.4-0.8 0.4-1.7-0.1-1.1-0.5-2.5 0.6-3.1 1.7-0.9 0.9-1.5 0.2-2.5s-1.6-2.2-0.1-3.4c0.3 0.1 0.6 0.1 0.6-0.2 0-0.4-0.1-0.8-0.6-0.8 0-1.2-1.8-1.3-1.5-2.7 0.4-1.6-0.2-2-1.6-1.3-0.9-0.3-0.9-1.2-0.9-1.9-0.1-1.2 0-2.4-0.4-3.5-0.4-0.9-0.4-1.7 0.6-2.2l0.1-0.1c0.2 0.1 0.3 0.2 0.5 0.3 0.2-0.5 0.4-1.1 0.5-1.6h0.7c0 0.3 0 0.9 0.3 0.9 0.6 0 0.5-0.5 0.5-0.9 1.3-2.1 1.8-2.2 3.9-1 0.5 0.3 0.9 0.6 1.5 0.4-0.7-4.4 0.9-8 3.6-11.3 0.8-0.3 2.2 0.7 2.5-0.6 0.4-1.4-0.7-2.3-1.8-3-1-0.6-1.7-1.3-2.2-2.3-0.1-0.2-0.1-0.4-0.2-0.6-0.3-0.8-1.9-0.7-1.4-2.1 1-3 0.7-3.9-1.6-5.9-0.6-0.5-0.9-1-0.4-1.6 0.7-0.9 0.8 0.2 1.1 0.4 0.5 0.3 1.1 0.6 1.7 0.6 0.3-1.1 0.5-2.3 2.1-1.6 0.8 1.4 1.9 1.1 3 0.5 0.4 0.3 0.8 0.3 1.2 0 0.5 0 0.8-0.1 0.7-0.7 0-0.7-0.6-0.8-1.1-1 0-0.1-0.1-0.1-0.1-0.2 0.2-1.1 0-2-1.1-2.5-0.2-0.4-0.5-0.7-0.4-1.2 0.9-0.6 1.4-1.2 0.4-2.2 0.2-1.4-0.4-2-1.7-2.1-0.8-0.3-1.7-0.5-2.5-0.8-0.4 1-1.7 1.1-2 2.1-0.4-0.2-0.8-0.3-1.2-0.5-0.7-0.2-1.3-1.1-2.1-0.1-0.7-0.9-1.7-0.7-2.6-0.8-1.8-0.2-3.6-0.2-5.3-0.7-3.2-0.8-6.3-1.6-9.5-0.1-0.8 0.4-1.7 0.6-2.6 0.3-1.5 1.3-0.1 1.9 0.7 2.6 0.8 0.8 2.2 1.4 1.6 2.8-1.1-1.1-2.5-1.6-3.7-2.3-0.1-0.2-0.3-0.3-0.4-0.5 0-0.7-0.5-1.1-1.8-0.7 0.1 0.1 0.1 0.3 0.2 0.4h-0.1c-0.2 1.4-0.8 2-2.2 2.1-0.6 0-1.4-0.1-2 0.4-0.6 0.3-1.3 0.5-1.8 0.9-1.7 1.2-3 1-3.9-0.8-0.2-0.4-0.5-0.8-1-1.1l-0.4-0.4c-2.4-1.3-4.8-0.9-6.7 0.6s-3.3 1.7-5-0.1c-1.4 0.7-3.3 0.5-3.6-0.6-1-3.1-2.6-1.9-4.3-1.2-0.4 0.1-0.9 0.1-1.3 0.2-1.1-0.2-2.2-0.3-3.2 0.2-1.1 0.5-3.1-1-3.2 1.5-0.5 0.2-1.1 0.3-1 1 0 0.4 0.3 0.6 0.7 0.3 0.4 1.2 3 2.5-0.2 3.4-0.7 0.1-1.4 0.2-2 0.3-0.5 0.1-0.9 0.2-1.4 0.3-0.6 1.2-1.8 0.7-2.7 0.9-0.1 0-0.1 0.1-0.2 0.1-0.2-0.2-0.4-0.3-0.6-0.2-0.4 0.3-0.2 0.6 0 0.9-0.1 0.1-0.1 0.3-0.1 0.4 0.2 0.8 0.1 1.7 0.4 2.5-2.3-0.2-3.8-2.3-6-2.9 0-0.2 0-0.4-0.1-0.6 0.4 0.1 0.9 0.3 1-0.3 0-0.8-0.6-1.2-1.4-1.3 0-0.1-0.1-0.3-0.1-0.4-0.3-0.5-0.5-1.1-0.8-1.6-1.2-0.6-2.2-2.2-3.8-0.6-0.7-0.2-1.3-0.6-2-0.6-0.8 0-1.7 0.2-1.5 1.5 0.1 0.6 1.1 1.2 0 1.8-1.1 0.5-2.1 1.5-3.4 0.4-0.2 0-0.4 0-0.5 0.1-0.5 0.2-0.9 0.3-1.2 0.3-0.1-0.1-0.2-0.1-0.4-0.1-0.3-0.2-0.5-0.7-0.5-1.4-1.5 0.3-3.1 0.6-4.6 0.8-1.2 1.1-2.7 1.2-4.2 0.7-1-0.3-1.8-0.7-1.6 1 0.1 0.3 0.2 0.5 0.3 0.8-0.6 1.1-1.2 2.2-2.6 2.2-0.1-0.1-0.2-0.3-0.3-0.4 1.3-3.3 1.8-6.8 2.9-10.2-0.4-0.5-0.8-0.9-1.2-1.4v-0.4c-1.5-1.9-3.6-2.8-5.7-3.8-0.5 0.4-1.1 0.5-1.7 0.8l-0.9 0.6c-1 0.5-0.6-0.9-1.2-1-0.3-0.1-0.6-0.2-0.8-0.2-1.1 0.3-2.2 1-2.4-1.1-0.1-0.8-1.2-0.8-1.9-0.9-0.8-0.1-1.1 0.5-1.3 1.1-0.4 1.7-0.6 3.3 0.7 4.8v1.3c-0.3 0-0.6 0-0.9 0.1-0.1 0.3-0.2 0.5-0.2 0.8-0.1 0.1-0.1 0.3-0.2 0.4-0.2 0.1-0.3 0.3-0.5 0.4-0.7 0.5-1.1 2.1-2.2 0.3-0.2-0.4-1.5 0.5-2.2 1.3-0.3 0-0.5 0.4-0.5 0.9-0.4 0.8-1.2 1.1-1.9 1.6-1.9 1.6-3.8 3.2-3.9 6.1 0.4 0.1 0.8 0.3 1.2 0.4 0.3 0.2 0.6 0.3 0.9 0.5 0.3 0.4 0.6 0.7 0.4 1.3-0.3 0-0.5 0.1-0.8 0.1-1.1 1-2.4 1.3-3.7 1.7-1.2 0.4-1.4 0.9-0.9 2.2 0.7 1.9 2.4 2.5 3.8 3.6 0.1 1.1-0.6 0.9-1.2 0.9-0.1 0-0.2-0.1-0.2-0.1-1.2-0.8-2.4-1.7-4-1.2 0-0.5-0.3-0.7-0.8-0.8-0.3 0.5-0.6 1.1 0 1.6-0.3 0.2-0.6 0.3-0.8 0.5v0.4l0.1 0.1-0.1-0.1c-0.4-0.1-0.8-0.3-1.2-0.4-0.2-0.3-0.4-0.6-0.5-0.8-0.1 0.7 0 1.4-0.3 2.1h-0.4c-0.5 1.4-0.6 2.7 0.5 3.8 0.1 0.1 0.1 0.2 0.2 0.2l-0.2-0.2c-1.8-1.1-2.1-2.9-2.4-4.7-0.2-0.4-0.3-0.8-0.5-1.1-0.8-0.8-1.8-1-2.8-0.8-0.5 0.1-1.2 0.4-1.1 1v0.4c-0.2 0.3-0.2 0.6-0.2 0.9 0.1 0.3 0.1 0.7 0.1 1-0.1 1-0.3 1.9-0.5 2.9v0.1c-0.1 0.2-0.1 0.4-0.1 0.6-0.1 0.4-0.1 0.9-0.2 1.3 0.4 0.7 0.8 1.5 0.8 2.3 0.1 1.5 0.9 2.4 2.2 3.1l0.1 0.1c-1.7-0.8-3.6-0.7-5.3-1.5-1.1 0-2.2-0.5-3.3 0-1.1-0.2-2-0.8-2.9-1.8-1 0.5-0.9 1.1-0.1 1.7 0.7 0.4 1.4 0.8 2 1.2 0 0.1 0 0.3 0.1 0.4 0.8 1.6 0.4 2.1-1.3 1.6-0.2-0.1-0.4 0-0.6 0.1-0.1 0.1-0.3 0.2-0.4 0.2h-0.6c-0.9 0.2-2.1 0.9-2.7 0.6-1.7-1-2.7 0.1-3.9 0.7l-0.6 0.6c-0.2 0.1-0.5 0.1-0.7 0.2s-0.3 0.2-0.5 0.4c0 0.2-0.1 0.3-0.1 0.5-0.2 0.1-0.4 0.3-0.6 0.4-0.3 0.2-0.5 0.3-0.8 0.5-0.8 0.3-1 1-1.2 1.7-0.3 0.4-0.6 1.2-1.2 0.8-0.7-0.4-0.2-1.1-0.1-1.7-0.1-1.9-0.8-2.6-2.4-2.5-1.9 0.2-1.3 1.3-1 2.4 0.2 0.5 0 1.1 0.1 1.7 0.1 0.2 0.1 0.4 0.2 0.6-0.1 0.1 0 0.2 0.1 0.3 0.3 0.7 0.2 1.2-0.7 1.2-0.7 0-1.7 0.7-1.8-0.8 0.4-0.7 0-1.1-0.6-1.4l-0.1-0.1c0.1-0.2 0.1-0.5-0.1-0.7-1-1.5-2.9-1.6-4.1-2.7-1.5-1.4-3.3-2.2-5.5-2-1.8-0.6-3.8-0.8-4.6-3-1.6-0.5-3.2-1.6-5-0.9-1.3-0.3-2.6-0.8-3.7 0.4s0 0 0 0c-0.2 0.1-0.3 0.2-0.5 0.3s-0.4 0.2-0.5 0.3c-0.5 0.2-0.9 0.5-1.4 0.6-0.8 1.3-2.2 1.1-3.3 1.7-0.3 0.2-0.5 0.5-0.8 0.7-0.5 0.4-0.9 0.8-1.3 1.2-0.4 0.3-0.8 0.5-1.2 0.5-1.1 0.7-1.5 1.6-1.1 2.9 0.1 0.2 0.1 0.5 0.2 0.7-0.1 0.3-0.1 0.7-0.1 1.1-0.2 0.5-0.5 1-1.1 1.3-0.3 0.4-0.4 0.7-0.1 1.2l0.1 0.1c-0.1 0-0.2 0.1-0.3 0.1-1.3 1.4-1 3.7-2.6 5-0.3 0.4-0.8 0.6-1 1-0.8 2-2.6 3.1-4.1 4.3-2.4 1.6-3 2.7-2.2 5 0.5 1.4 0.6 2.7 0.6 4.1-0.1 2.3 1.6 3.5 3.8 2.9 1.3-0.4 2.4-0.9 3.3-1.9-0.1 1 0.5 1.9 0.8 2.9 0.3 0.6 0.8 1 1.4 1.3v0.1c0 0.2 0.1 0.4 0.2 0.6 0.2 0.3 0.3 0.5 0.4 0.7v0.6c-0.6 0-1 0.3-1.4 0.6h-0.5c-0.1 0-0.2 0-0.2 0.1 0-0.1 0-0.2 0.1-0.2 0.9-1.1 0.3-2.2-0.1-3.3-0.2-0.6-0.7-1-1.5-0.8-2.1 0.5-3.1 2.8-2.1 4.9h-0.2c-0.4 0.6-0.2 1.1 0.1 1.7 0.1 0.2 0.2 0.4 0.2 0.6-0.2 0.4-0.5 0.7-0.8 1-0.1 0-0.2 0.1-0.2 0.1-1.6 0.8-3.8 0.6-4.6 2.8-0.6 1.7-1.7 2.4-3.3 2.8-0.4-0.6-0.1-1.2 0.1-1.8 0.3-0.8 0.3-1.5-0.6-2-0.3-0.5-0.9-0.3-1.3-0.5v-0.4c0.6-0.8 0.3-1.3-0.4-1.7-1.1-1.6-2.7-3-2.7-4.9 0-1.5-0.2-2.6-1.3-3.7-0.7-0.7-0.8-1.9-2.1-1.3s-3.2 1.3-2.8 2.9c0.6 2.5 0.4 3.9-2.2 4.5-0.1 0-0.1 0.2-0.2 0.4l-1.3 1.3c-0.9 0.2-1.3 0.8-1.3 1.8 0 0.8 0.5 1.6 0 2.5-0.8 1.6-0.4 2.6 1.2 2.9 0.6 0.1 1.1-0.2 1.6-0.2 0.7-0.6 1.5-0.5 2.3-0.8 1.2-0.5 2.1-1.2 1.3-2.6 0.9 0 1-0.7 1.1-1.3 0.1-0.9 0.5-1.4 1.1-1.9 0-0.1 0.1-0.1 0.1-0.2l0.6 0.3c0.3 0.3 0.6 0.5 0.9 0.8v0.2h-0.8c0.1 0.1 0.1 0.3 0.2 0.4-0.4 0.1-0.7 0.4-1.1 0.7-0.2 0.2-0.3 0.4-0.5 0.6-0.5 0.4-0.4 0.8 0 1.2l0.1 0.1c-0.1 0.2-0.2 0.4-0.2 0.6v0.4c-0.4 0.2-0.8 0.3-0.6 1h0.7c0.3 0.8-0.4 1.4-0.4 2.1-0.4 0.3-0.8 0.5-1.2 0.8-0.4 0.9 0.3 0.8 0.8 0.9l0.4 0.4c0.5 0.2 0.9 0.3 1.3 0.2 0.3-0.2 0.7-0.3 1.1-0.4 0.5-0.2 0.9-0.5 1.3-0.7-0.3 0.4-0.8 0.6-1.3 0.7-0.3 0.2-0.7 0.3-1.1 0.4-0.4 0.2-0.7 0.5-0.9 1v0.4c-0.6 0.9-0.3 1.7 0.1 2.6 0.3 0.2 0.6 0.3 0.9 0.2 0.2 0.1 0.5 0.2 0.8 0.2 2.5 2 3 3.4 2.1 5.5-0.4 1.6-1.6 1.4-2.6 1.2-2.3-0.4-4.6-0.3-6.9-0.4-1.1 1-1.5 2.1-1 3.6 0.4 1.2 0.1 2.5-0.3 3.7-0.1 0.6-0.4 1.2-0.1 1.7h-0.7v0.4c0.3 0.6 0.5 1.1 0.8 1.7-0.8 0.9-0.5 1.6 0.5 2.1 0.6 0.1 1.1 0.3 1.7 0.4 1.1 0 1.9 0.6 2.1 1.7v1.3 0.3c-0.1 0.1-0.1 0.2-0.2 0.3-0.2 0.7-0.7 1.2-1.4 1.5-2.2 0.8-3.4 2.7-3.6 4.8-0.3 2.8-1.8 4.2-4.2 5.1-0.9 0.3-1.3 0.9-0.8 1.7-1.2 1-2.3 2.1-2.7 3.8 0 0.2-0.1 0.5-0.1 0.7-1.8 0.7-1.7 2.8-3 4-0.2 0.5-0.6 1-0.3 1.6l0.4 0.4c0.1 0.1 0.2 0.2 0.4 0.2v0.2c-0.3 1.9-0.1 3.9-0.5 5.8v0.5c-0.5 1.4-1.5 2.7-0.7 4.3 0.3 0.3 0 0.6 0 1v0.3c-0.3 0.6 0.1 0.9 0.4 1.2h0.1v0.9h2.4c0.9 1.3 2.1 2.4 3.4 3.4v1.2l0.4 0.4v0.5c0.3 1.5 1.5 2.1 2.8 2.4 0.1 0.1 0.3 0.1 0.4 0.2 0.1 0.7 0.7 1 1.3 1.3 0.5 0.9 1.4 1.2 2.1 1.7 0.7 0.7 1.5 0.5 2.3 0.1 2-1 4.2-1.1 6.4-0.7 1.8 0.8 3.2-0.2 4.6-1.1 2-0.6 4.1-1.2 6.2-0.4 0.1 0.3 0.3 0.6 0.4 0.9l0.6 1.2c1.2 1.7 2.7 0.8 4.1 0.5 0.1 0.5 0.4 0.8 0.8 0.9 1.3 0.5 1.7 1.5 1.5 2.8-0.2 0.1-0.3 0.3-0.4 0.5 0 0.3-0.1 0.6-0.1 0.9h0.5c-1.4 3.7-0.3 6.4 2.9 8.5 0.1 0.2 0.3 0.3 0.4 0.5 0 0.1 0.1 0.3 0.2 0.4 0.1 0.3 0.1 0.5 0.2 0.8 0.2 0.1 0.5 0.3 0.7 0.4-0.2 1 0 1.8 0.7 2.4 0.3 2 0.3 4.1 1 6 0.4 1.1 0.2 2.1-0.6 2.9-1.9 1.9-2.3 4.4-2.4 6.9-0.3 1 0.1 1.8 0.6 2.7 1.3 2.2 2.6 4.4 3 6.9 0.5 3.9 1 7.8 3.8 10.9v-0.2h0.1l-0.2 0.2c0.3 2.3 1.4 4.3 1.4 6.7 0 1.9 1.5 2.5 3.4 2.1 1.5-0.3 3.1-1 4.7-0.8 2.6 0.3 4.7-0.7 6.8-2.1 2.8-2 4.4-5.2 6.8-7.7 0.6-0.7 0.9-1.7 0.7-2.8 0.4-0.9 0.7-1.7 1.1-2.6 1.5-0.2 2.5-1.1 3.2-2.4 0.7-1.5 0.5-2.9-0.4-4.3 0-0.1-0.1-0.3-0.1-0.4 0.1-0.6 0.2-1.3 0.4-1.9 0.9-0.7 1.8-1.5 2.8-2.2 0.7-0.1 1.1-0.5 1.4-1.1l0.6-0.6c3-0.9 4.2-2.3 4.2-5.3 0-1.3 0-2.7 0.1-4 0-0.9-0.1-1.7-1-2.1-0.4-1.6-0.3-3.4-0.7-5-0.5-1.8 0.1-2.9 0.7-4.3 0.8-1.7 2.4-2.7 3.3-4.3 0.1-0.1 0.1-0.2 0.2-0.4 2.1-1.6 3.6-4.2 6.2-5.2 0.3-0.2 0.6-0.5 0.9-0.7 0.1-0.2 0.1-0.4 0-0.6 0-0.1 0.1-0.2 0.1-0.2 0.1 0 0.3 0 0.4-0.1 0.2-0.1 0.3-0.2 0.5-0.3 0.3-0.2 0.6-0.4 0.8-0.7 0.1-0.1 0.2-0.1 0.3-0.1 0.4-0.6 0.8-1.2 1.1-1.8h0.5c0.6-1.3 1.1-2.5 1.7-3.8 0.1-0.2 0.1-0.3 0.1-0.4l0.1-0.1c0.4-0.9 1.2-1.6 1.5-2.5 0.4-1.2 1-2.5 0.3-3.6-0.9-1.3-2.2-0.2-3.3-0.1-2.9 0.2-5.6 1.8-8.6 1v-0.2c0-0.1 0-0.2-0.1-0.4-0.1-0.9 0.3-1.3 0.9-1.5 0.4 0 0.9-0.2 1.6-0.3 1.5-0.5 3-0.8 4.5-1.5 0.7-0.3 1.5-0.4 1.5-1.5 0-0.1 0-0.1-0.1-0.2 0 0 0-0.1-0.1-0.1 0 0.1 0.1 0.1 0.1 0.2 0.1 0.1 0.1 0.2 0.2 0.2 1.5 0.3 2.8-0.4 4-1.1 0.7-0.9 1.4-1.8 2.2-2.7 1.8-0.2 3-1.6 4.3-2.8 1 0.2 1.5-0.7 2.3-1 0.4-0.9 0.5-1.9 1.3-2.7 2-2.3 1.9-2.5-0.3-4.9-0.9-0.2-1.9-0.3-2.8-0.5-0.4-0.7-0.9-1.4-1.3-2.1 0-0.2 0-0.3 0.1-0.5-0.1-0.5 0.3-1.3-0.4-1.5-0.3-0.1-0.3 0.6-0.4 1-0.5 0.5-1.1 0.9-1.6 1.4-0.2 0.4-0.3 0.8-0.5 1.2-0.4 0.2-0.8 0.3-1.2 0.5-1.1-0.5-2.3-0.3-3.3-0.9-0.1-0.6-0.3-1.1-0.4-1.7l0.4-0.4c-0.1-0.5-0.4-0.7-0.9-0.8-0.1 0.3-0.2 0.6-0.2 0.9-0.3-0.2-0.7-0.4-1-0.6-0.1-1.4-0.8-2.4-2-3-0.3-0.6-0.6-1.1-0.9-1.7-0.1-0.5-0.1-0.9-0.5-1.3 0.1-0.4 0.2-0.8 0.3-1.1 0.3-0.1 0.6-0.1 0.9-0.1 0.8 0.3 1.5 0.7 2 1.5 0.9 1.5 2.2 2.5 3.5 3.5 0.2 0.2 0.5 0.4 0.8 0.4l1.2 0.3c0.5 0.2 1 0.3 1.6 0.2 0.4 0 0.8 0.1 1.3 0.2 0.9-0.2 1.5 0.5 2.2 1 2.2 1.5 4.6 1.7 7.1 1.2 0 0.3 0.2 0.5 0.4 0.6 0.5 0.3 1.1 0.2 1.7 0.2 2.4-0.3 4.9-1.2 6.7 1.6 0.3 0.5 1 0.7 1.5 0.3 0.1 1.2 1.3 1.6 1.7 2.6 1 2.7 1.9 3 4.6 2 1 0 0.7 0.9 0.8 1.4 0 0.9 0 1.8 0.3 2.7 1.8 5.5 4.5 10.5 6.9 15.7 0.7 1.5 1.8 1.7 3 0.6 0.9-0.8 1.7-1.6 2.2-2.7v-0.1c0.4-0.2 0.5-0.7 0.6-1.2 0.3-3.7 0.8-7.3 3.1-10.3 0.5-0.5 1-0.9 1.5-1.4 2.4-2.3 4.2-5.5 7.4-6.7 0.5 0.2 1 0.2 1.6 0.2 0.8-0.4 1.6-0.1 2.4-0.2-0.2 1 0.3 1.7 0.9 2.3 1.8 2 3.5 4 3.4 7 0 0.3 0.3 0.6 0.6 0.8 0.9 0.4 1.7 0.2 2.6-0.1-0.1-0.7 0.8-0.3 1 1zm-60.1-106.3c0.2-0.2 0.4-0.5 0.5-0.8 0.3-0.8 0.3-1.8 0.6-2.7v-0.5c0.1-0.7 0-1.4-0.2-1.9l0.7 0.7v0.2 0.1c-0.3 0.3-0.3 0.8-0.5 1.2 0 0.1-0.1 0.2-0.1 0.2-0.1 0.9-0.2 1.8-0.6 2.7 0 0.3-0.2 0.6-0.4 0.8v0zm-42.7 59.7c-1.2 0.5-2.3 1.2-3.4 1.7-0.9 0-1.7-0.3-2.3-1.3-0.3-0.7-0.3-1.4 0-2.1 0.1-0.3 0.3-0.6 0.4-0.9 0.3-0.6 0.6-1.2-0.1-1.7l0.3-0.3c0.1-0.2 0.2-0.3 0.3-0.5 0.2-0.2 0.3-0.5 0.4-0.8 0.7 0.3 0.8-0.5 1.1-1 0.8-1.3 1.7-1.5 2.9-0.6 0.1 0 0.1 0 0.2 0.1v0.2c0.2 0.1 0.4 0.3 0.6 0.4 0 0.1-0.1 0.3-0.1 0.4 1.1 2.4 1.3 2.5 2.9 1.3v0.1c0.3 0.1 0.6 0.1 0.8-0.1 0.9-0.5 1.8-0.4 2.7 0 0.3 0.3 0.6 0.5 1 0.8 2 1.2 3.9 2.6 5.5 4.4 0 0.2-0.1 0.4-0.2 0.7-0.4 0-0.9 0-1.3 0.2-1.8 0.2-3.5 0-5.3-0.8-2.1-0.8-4.2-1.1-6.4-0.2zm31 9.3c-1.9 0.4-4.2-1-5.1-2.9 0.2-0.5 0.4-1 0.3-1.6 0.7-1.8-0.4-3.2-1.2-4.6-0.3-0.2-0.5-0.3-0.8-0.3 0-1.5-1.1-2.6-1.7-3.9-0.7-1.6-0.6-2.6 0.7-3.6v-0.1c1.1 0.3 2-1.2 3.1-0.7-2 3.3-1.9 4 0.6 6.8 0.4 0.5 0.8 1 1 1.5s0.5 0.9 1 1.1c0.6 2.3 2.1 4.2 3.2 6.4 0.2 0.9-0.2 1.7-1.1 1.9zm-27.6-15.9l-0.3-1.2 1.2-0.3c0.3-0.2 0.6-0.4 0.7-0.7 1 0.4 1.6-0.4 2.4-0.9-0.7 0.5-1 1.3-1.2 2.1-1 0-1.9 0.5-2.8 1zm-17.3 8.1h-0.1c0.1-0.1 0.1-0.1 0.1 0l0.1-0.1c-0.1-0.1 0-0.1 0-0.1s0 0.1 0.1 0.1c-0.1 0-0.1 0-0.2 0.1 0.1-0.1 0.1 0 0 0zm8.6-47.3zm15.4 66.7zm0.5-0.1zm-1.9-52.9zm-1.2 22.5c0.1 0 0.1-0.1 0.2-0.1-0.1 0-0.1 0-0.2 0.1zm-4.9-41.9c-0.2 0-0.5-0.1-0.6-0.3-0.1-0.1-0.2-0.2-0.2-0.3-0.3-0.2-0.6-0.3-1-0.5-0.6-0.1-1.1 0-1.7 0 0.6-0.4 1.1-0.3 1.7 0 0.3 0.1 0.7 0.2 1 0.5 0.3 0.1 0.5 0.2 0.8 0.3v0.3zm-17.9 163.5zm-30.9-59.4zm178.3-36.5zm-159.5-43.1c0.1 0 0.2-0.1 0.3-0.2 1.1-0.3 1.8-0.8 2.2-1.5 0.5-0.6 0.7-1.3 0.5-2.2-0.1-0.7 0-1.5 0.2-2.3 0.1-0.3 0.3-0.6 0.6-0.9 1.9-2.1 2-2.5 0-4.6-0.4-0.5-0.5-0.9-0.6-1.5-0.2-1.8 0.3-3.3 1.2-4.8 0.7-0.9 1.4-1.7 2.1-2.6 0.1 0 0.1 0.1 0.2 0.1 0.3-0.1 0.6-0.2 0.6-0.4 0-1.9 1-3.2 2.3-4.3 0.1 0.4 0.5 0.6 0.6 1.1 0 0.2 0 0.4 0.1 0.5 0.2 1.1-0.4 2-1 2.6-2.1 2.2-2.6 4.6-1.8 7.5 0.4 1.5 2.5 4 3.9 3.6 2-0.6 4.2-0.4 5.9-1.8 0.3 0.6 0.3 1.3 0.2 2-2.1-0.5-4.2-1-6 0.8 0 0.1-0.1 0.2-0.1 0.3-1.1 0.8-2.7 1.4-1.6 3.3-1.6 2.1-2 4-1.2 5.4 0 0.1 0.1 0.2 0.1 0.3l0.1 0.1c-0.6 0.5-1.2 0.7-2 0.4-3-1.2-5.3 0.5-7.6 2.1-0.7-0.5-1.5-0.7-2.3-0.7 0.1-0.3 0.3-0.6 0.4-0.8 0.5-1.2 2.3-0.3 2.7-1.5zm-24.6 38.5c0.8 0 1.7 0.2 2.5-0.4 2.3-1.2 4.5-2.3 4-5.6-0.1-0.8 0.5-1.5 1.2-1.9 1.7-0.9 2.9-2.1 3.4-4 0.2-0.6 0.6-1 1-0.8 2.4 1.3 3.8-0.4 5.4-1.8 0.4-0.4 1.1 0 1.5-0.3v0.1c0.5 0.4 0.5 1.4 1.3 1.6 0.3 0 0.2 0.2 0.2 0.3 0.4 2 1.9 2.9 3.7 3.4 0.3 0.2 0.6 0.3 0.8 0.5 0.2 0 0.3 0 0.5-0.1v0.1c0.1 0.6 0.3 1 0.9 0.8-0.1 0.2-0.2 0.4-0.2 0.6 0.5 1.4 0.9 2.6-1.3 2.8-0.9 0.1-1.6 0.8-1.6 1.8 0.1 0.9 0.7 1.2 1.5 1.3 0.2-0.1 0.4-0.2 0.5-0.3 0.9 0.3 1.8 0.9 2.5-0.2 0 0 0.1 0 0.1 0.1 0.7-0.2 1.1-0.8 1.6-1.2 0-0.3 0-0.5 0.1-0.8l-0.1-0.1c0.7-1.1 0.3-2.5 0.5-3.7 0.4-0.1 0.9 0.1 1.1-0.4 0.1-0.4-0.3-0.6-0.6-0.8-0.6-0.4-1.2-0.7-1.8-1-1.1-1.2-3-1.5-3.4-3.4-1-1-2.3-1.8-2.1-3.5 1.1 1.5 2.7 2.6 4 3.9 0.9 0 1.7 0.7 2.6 0.4 0 0 0 0.1 0.1 0.1 0.5 0.4 0.9 0.7 1.5 0.9-0.1 0.7 0.4 1.2 0.7 1.8 0.3 0.2 0.6 0.5 0.9 0.4v0.3c0.1 0.5 0.4 0.8 0.9 1h0.1v0.3c-0.2 1.1 0.8 1.7 1.1 2.6-0.4 0-0.8 0-1.2 0.1 0 0.5 0.1 1.1 0.1 1.6h1.1c0.1 0.7 0.4 1.3 1.3 0.9 1.6 2.1 1.6 2.1 3.2-0.1 0.2-0.3 0.4-0.5 0.6-0.7 0.2-0.1 0.3-0.1 0.5-0.2h0.2c0.5-0.5 0.5-1 0-1.6-0.5 0-1 0-1.5 0.1-0.1 0-0.2-0.1-0.3-0.1-0.1-0.4-0.2-0.8-0.4-1.2 0-0.2 0.1-0.3 0.1-0.5 1.4-0.3 2.3-1.9 3.9-1.7-1 1.6-0.9 3.8 0.4 5.7 0.1 0 0.3 0.1 0.4 0.2-0.1 0.4 0.1 0.7 0.9 0.6v0.1c2.2 3.4 5.9 1.5 8.7 2.5 0.6 0.2 1.4 0.2 2-0.2 0.2-0.1-0.1 0 0.2-0.1 1-0.7 1.9-0.6 2.6 0.3-0.8 0.4-0.3 1.2-0.2 1.9 0.1 0.2 0.2 0.4 0.3 0.5-0.1 0.1-0.2 0.3-0.3 0.4s-0.2 0.3-0.2 0.5v0.7c-0.1 0.1-0.3 0.1-0.4 0.2-0.2 0.2-0.3 0.5-0.3 0.8 0 0.1 0.1 0.1 0.1 0.2-0.8 0.6-0.9 1.7-1.2 2.6v0.1c-0.2 0-0.4 0-0.7 0.1-1.4 0.1-2.9-1.1-4.2-0.5-2.2 1-4.1 0.1-6.2-0.2-0.7-0.1-1.4-0.5-2.2-0.2 0 0 0 0.1-0.1 0.1-1.3-0.6-2.6-1.2-4-1.7-1-0.8-2-0.2-2.9 0-1.2 1-0.5 2.7-1.3 3.8-0.3 0.3-0.7 0.4-1.1 0.3v-0.1c-0.2-1-1.1-1.1-1.8-1.5-0.8-0.4-1.8-0.2-2.5-0.9-0.8-1.4-2.2-1.9-3.6-2.1-0.7-0.1-1.5 0-2.2-0.5-0.4-0.3-0.8-0.4-1.2-0.1v0.2c-0.3-0.1-0.7-0.2-1-0.3-0.1-0.2-0.2-0.4-0.2-0.5l0.1-0.1c-0.1-0.6 0.2-0.9 0.7-1.2 0.5-0.5 0.7-1 0.7-1.7-0.1-0.7-0.1-1.5-0.2-2.2-0.4-0.9-1.1-1.3-2-1.4-0.7 0-1.3 0-1.8 0.4-2.1-0.1-4.2 0.4-6.3 0.3-1.7 0-3.5 0.4-5 1.2-2.4 1.3-4.7 2.2-7.5 1.7-0.9-0.9 0.2-1 0.8-1.3zm69.2 36.5c-0.7-0.4-1.3-0.9-2-1.3 0-0.4-0.2-0.8-0.6-1-0.2-0.1-0.5-0.2-0.7-0.3 0-0.1-0.1-0.2-0.1-0.2 0.2-0.2 0.2-0.3 0.1-0.6-0.7-0.8-0.6-2.1-1.7-2.5-1.1-1-1.7-2.2-1.9-3.7-0.2-1.2-0.5-2.4-1.4-3.4-0.8-0.5-1.5-1-1.1-2.2 0.5-1.1 0.1-1.8-1-2.1-1.2-1-1.6-2.5-2.2-3.9 0.2-0.6 0.6-0.9 1.1-0.9 0.1 0.1 0.1 0.3 0.2 0.4 2.2 3.6 5.4 6.5 6.5 10.8 0.1 0.3 0.3 0.7 0.5 0.9 2 1.5 2.9 3.9 4.5 5.7 0.3 0.4 0.6 0.8 1.1 1.1-1.1 1.4 0.1 2.7 0.6 4 0 0.1 0.1 0.2 0.1 0.3-0.8 0-1.3-1.1-2-1.1zm24.3-116.3c0.6 1.1 1.3 1.4 2.4 0.8l0.6-0.3c0.1-0.1 0.2-0.1 0.3-0.2 0.1 0 0.1 0 0.2 0.1-0.1 0-0.3 0.1-0.5 0.1-0.9 0.6-1.3 1.2-1.1 1.8-0.5-0.7-1.2-1-2.1-1.1 0-0.1-0.1-0.1-0.1-0.2 0.1-0.5 0.2-1.1 0-1.6 0 0.2 0.1 0.4 0.3 0.6zm4.3 89.9v0.3c-0.1 0-0.2 0.1-0.3 0.2 0.1-0.1 0.1-0.2 0.2-0.3 0-0.1 0-0.1 0.1-0.2zm3.4-110.4c-0.1 0-0.1 0.1-0.2 0.1 0-0.1 0.1-0.1 0.2-0.1zm-9.6 17.4c0.4-0.5 0.5-1.2 0.2-1.6 0.3 0.5 0.5 1 0.5 1.6 0 0.5 0.2 0.9 0.3 1.4-0.3-0.5-0.7-0.9-1.2-1.2 0.1-0.1 0.2-0.1 0.2-0.2z"/>
		<path d="m285.9 140.9c-1-0.6-1.8-0.5-2.5 0.5 1.1 0.7 1.9 0.3 2.5-0.5z"/>
		<path d="m276.8 139.2c-0.3-0.3-0.6-0.3-0.9 0v0.8c0.4-0.3 0.7-0.5 0.9-0.8z"/>
		<path d="m217.6 29.3c-0.5 0.3-0.7 0.7-0.8 1.2 0.6-0.1 0.8-0.6 0.8-1.2z"/>
		<path d="m205.4 66.2c0.4-0.1 0.8-0.3 1.1-0.5 1.5-0.9 2.5-2 3.1-3.5 1-0.8 1.2-2 0.7-3.2-0.1-0.4-0.3-0.8-0.4-1.3 0-0.3-0.1-0.6-0.2-0.9s-0.1-0.6-0.1-0.8v-0.9c1.1-0.7 0.8-2.2 1.7-3 0.3-0.1 0.6-0.2 0.8-0.4l0.8-0.8 2.1-4.2c1.1-0.3 0.4-1.1 0.4-1.7-0.4-0.6-0.9-1.1-1.6-1.4-0.2-0.4-0.4-0.7-0.5-1.1 0-0.9-0.8-1.7-0.4-2.6 0.6 0 1.1 0 1.7 0.1 1.8 0.2 1.6-1.4 0.9-1.7-1.2-0.7-0.9-1.7-1-2.6v-1c0.7-0.7 0.9-1.5 1-2.4v-0.1c0.2-0.7 0.4-1.4 0.5-2.1 0.4-1 0.9-1.9 1.5-2.7 0.4-0.3 0.9-0.7 0.4-1.3v-0.5c1-0.1 1.7-0.5 1.6-1.7 0.3-0.2 0.5-0.3 0.8-0.5 0.3-0.3 0.7-0.5 1-0.8 0-0.8 0.8-0.9 1.3-1.2 1.5-1.2 1.4-2.6-0.3-3.4-0.9-0.5-2.1-0.8-2.8-0.2-1.1 1.1-2.7 1-3.7 1.9-0.8-0.4-0.2-1.2-0.4-1.8s0 0 0 0c0.1-0.6 0.4-1.3-0.2-1.7-0.4-0.3-0.9-0.2-1.1 0.2-0.7 1.8-2.3 1-3.5 1.3v-0.6c1 0 1.6-0.5 1.5-1.6v-0.5c1.6-0.5 3.5-0.3 5-1.4 0.1-0.7 0.1-1.4-0.8-1.5-0.4-0.2-0.8-0.3-1.2-0.5-0.5-0.4-1.1-0.8-1.6-1.3 0.5-1.5-0.5-1.2-1.3-1.2 0-0.3-0.1-0.6-0.1-0.9 0.5-0.8-0.1-1.2-0.6-1.4-2.1-0.7-4.1-1.7-6.3-1.7-0.9 0-2-0.1-2.6 0.9-0.6-0.1-1.1 1.3-1.7 0.1-0.4 0.3-0.5 1.2-1 0.9-1.8-1.1-3.2 0.2-4.8 0.8 0.4 0.5 0.8 1 1.1 1.6-1.5 0.6-3.2 1.2-2.4 3.4-0.1 0.6-0.1 1.3-0.5 1.8-0.5-0.5-0.5-1.4-1.2-1.7-0.4-1.1-0.3-2.6-2.1-2.5-0.1 0.7-0.2 1.4-0.2 2.1-0.1 1.3-0.7 1.9-2 1.6 0.4-1.2 0-2.5 0.1-3.7h-0.4c-0.9-0.8-1.9-1-2.9-0.3-1.8 0.1-3.3 0.1-3.7-2.4-0.2-1.1-0.5-3.1-2.6-3.1-2-2.3-4.7-3.1-7.5-3.4-0.1-0.3-0.3-0.5-0.4-0.8h-0.8c-1.2 0.2-2.2 0.6-3.5 0.5-1.2-0.1-3.2-0.3-4 1.6-0.6 0.5-1.2 0.9-2 0.5-0.4-0.3-0.8-0.5-1.3-0.1-1.1 0.9-2.3 1.3-3.8 1-1.1-0.3-2.4-0.1-3.3 0.8-0.3 0.2-0.5 0.3-0.8 0.5v0.8h0.8c0 0.3 0 0.5 0.1 0.8-0.2 0.1-0.3 0.2-0.4 0.5v0.4c-0.1 0.9-0.7 1.7 0 2.6 0 0.1 0.1 0.3 0.1 0.4-0.1 0.5-0.4 0.8-0.9 0.9l-1.2-0.9c0.1-1.2 0.5-2.3 0.3-3.5-0.1-0.6-0.4-1-1-1.2-0.4-0.1-0.9-0.1-1 0.4-0.3 1.4-1.8 1.7-2.5 2.7-1.9 1.2-2.1 3.4-3.3 5.1-0.2 1 0.2 1.8 0.9 2.5v0.5c-0.4 0.2-0.8 0.3-1.2 0.5 0 0.7-0.5 1.3-0.1 2-0.1 0.1-0.1 0.3-0.1 0.4-0.2 1.6 0.6 2.5 2.6 2.5 1.5 0 1.9 0.4 1.3 1.8h-0.8c0.3 2-0.5 3.2-2.6 3.3-1.8 1-3.3 0.7-4.8-0.3-0.2-0.2-0.4-0.3-0.7-0.5-0.5-0.5-0.9-1.1-1.4-1.6-0.7 0-1.5 0-1.5 1-0.1 1 0.1 2 0.9 2.4 1.7 0.9 1.6 2.2 1.1 3.7-0.3 0.3-0.5 0.6-0.8 0.8-0.9 0.6-0.7 1.6-0.8 2.5 0.3 0.6 0.7 1 1.3 1.3 0.7 0.3 1.5 0.7 2.2 1.1 0.3 0.1 0.6 0.2 0.8 0 0.1 0 0.2 0.1 0.4 0.1 2 0.7 4.2 0.7 6.2 1.6 0.7 0.3 1.6 0.1 1.7-1 0.1 0 0.2 0.1 0.2 0.1 1.3-0.2 1.8-1.2 2-2.3 0.1-1.2-0.5-2.1-1.5-2.7s-2.2-0.9-3.3-0.7c-1.3 0.3-2.6 0.1-3.8-0.5-0.1 0-0.2-0.1-0.3-0.1 0.1-0.9 0.7-1.3 1.6-1.1 0.5 0.1 1 0.2 1.4-0.2 0 0.1 0.1 0.1 0.1 0.2 1.4 0.7 3.2 0.2 4.4 1.4 0.8 0.4 1.3 1.5 2.4 1.4 0 0.1 0 0.3 0.2 0.4 0.5 0.3 0.8-0.3 1.3-0.5 0.1-0.3 0.2-0.5 0.4-0.7 0.1 0 0.2-0.1 0.3-0.1 0 0 0.1 0 0.1-0.1 0 0 0.1 0 0.1-0.1l0.6-0.3c0.2-0.2 0.5-0.4 0.6-0.7 0.2-0.6 0.1-1.2 0.2-1.7-0.1-0.6 0.5-1.1 0.3-1.7 0.7 0.4 1.2 0 1.6-0.5 0.3-0.4 0.6-0.8 1.2-0.7 1.1 0.1 1.7-0.5 2.5-1.2 1.7-1.4 2.2-3.6 3.6-5.2 1.8-0.3 3.4-0.8 4.9-1.9 0.9-0.5 1.7-1.2 2.5-1.9 0.6-0.6 1.7-0.8 1.9-1.8 0 0 0 0.1 0.1 0.1 0.2 0.2 0.4 0.2 0.6 0.3-0.7 0.2-1.3 0.6-1.7 1.4-0.1 0.1-0.1 0.2-0.2 0.2-0.9 0.1-1.4 0.7-1.3 1.5 0 0.9 0.6 1.4 1.5 1.4 0.1 0 0.2 0 0.2-0.1-0.2 0.6-0.6 1.2-0.3 1.9-2.7 0.4-5.5 1-8.1 1.7-1.5 0.4-2.6 1.4-2.3 3 0.2 1.3 0.7 2.6 1.9 3.4-0.1 0-0.3 0-0.4 0.1-0.9 0.2-1.5 0.6-1.7 1.5 0.3 1.3 0.3 2.6 0.7 3.9 0.9 1.1 1.9 1.7 3.4 1.4 1.8-0.3 3.4 0.7 5.2 0.4 0.1 0.1 0.2 0.2 0.2 0.3 0.1 0 0.1 0.1 0.2 0.1 0.3 1.4 1.2 2.6 1.4 4.2 0.5 3.7 1.5 7.4-0.2 11-0.2 0.4-0.1 0.8 0 1.2 0 0 0 0.1 0.1 0.1-0.1 0.1-0.2 0.1-0.3 0.2 0.2 0.4 0.6 1.1 1 0.9 0.2-0.1 0.3-0.1 0.5-0.2 0.1 0 0.2 0 0.3 0.1 0.9 0.1 1.5 0.6 1.5 1.6-0.1 0.4-0.1 0.9-0.3 1.4-0.7-0.6-1.6-0.7-2.5-0.8l-0.2 0.2c0 0.1-0.1 0.3-0.1 0.4-0.3 0.2-0.4 0.6-0.5 0.9 0 0-0.1-0.1-0.2-0.1-0.2 0-0.4 0-0.6 0.1-0.7 0.5-1 1.2-0.8 2 0 0.9 0.3 1.7 1.1 2.2 0.6 0.3 0.6 0.7 0.4 1.3-0.5 1.1-1.6 1.7-2.1 2.7-0.7 1.5-0.9 3.2-0.7 4.7 0.3 2 0.1 4.2 1.7 5.9h0.1c-0.2 2.6 0.9 5 1.6 7.4 0.3 0.8 0.8 1.5 1.8 1.4h0.1c0.3 1.5 1.8 1 2.8 1.3-0.4 1.1 0.2 1.7 1.3 2 0.6 0.1 1.2 0.1 1.6-0.5h0.4c0.7-0.3 1-0.9 1.2-1.6 0.1-0.3 0.3-0.6 0.4-0.8 0.3-0.8 0.3-1.7 0.9-2.4 0.1-0.2 0.2-0.3 0.2-0.5 0.3-1.9 1.9-2.8 2.8-4.3v-0.2c1.1-1.9 3-2.9 4.6-4.2 0.1-0.1 0.1-0.3 0.1-0.4 0-0.2 0-0.4-0.1-0.5 0.1-0.1 0.1-0.1 0.2-0.1 0.6 0 1.3 0.3 1.9 0.2 1.4-0.2 2.5-1 3.2-2.2 1.3-2.1 3.2-3 5.5-3.4 1.7-0.3 3.4-0.5 4.8-1.8 0.1-0.2 0.2-0.5 0.3-0.7-0.2-0.5 0-0.6 0.2-0.6zm-29.8-52.3c0.2-0.2 0.3-0.3 0.5-0.4 0.6-0.6 1.2-1.3 2.1-1.3v0.1l-0.1 0.1c-0.4 0.8-0.8 1.7-1.8 1.8-0.2-0.2-0.5-0.3-0.7-0.3zm35.7 26.1v0c0.1-0.1 0.1 0 0 0zm-49.1-37.8s-0.1-0.1 0 0v0z"/>
		<path d="m399 203.7c1.5-0.5-0.3-1.2 0.1-1.7 0-0.1-0.1-0.3-0.1-0.4-0.4 0.1-0.8 0.3-1.2 0.4-0.2-0.2-0.4-0.3-0.6-0.5-1.5-1.3-1.6-3.5-3.1-4.8-1-0.3-1.5-1.3-2.5-1.5-0.3 0-0.6-0.1-0.8-0.2s-0.4-0.2-0.5-0.3c-0.2-0.1-0.4-0.3-0.6-0.4-0.1-2.1-1.8-2.3-3.1-2.9-0.1 0-0.1 0-0.2 0.1-0.2-0.5-0.4-0.8-0.8-0.9-0.3-0.2-0.6-0.3-0.9-0.3-0.4-0.1-0.7-0.1-1.1-0.2s-0.9-0.6-1.3-0.1c-0.4 0.6 0.1 1.1 0.4 1.5 0.1 0.1 0.2 0.1 0.2 0.2 0.1 0.2 0.1 0.4 0.3 0.6 0.8 1.4 1.6 2.8 3.3 3.3h0.3c0 0.1 0.1 0.1 0.1 0.2 0.1 0.6 0.1 1.2 0.3 1.8 0.3 0.5 0.7 0.9 1 1.4 0.4 0.6 0.8 1.1 1.2 1.7 0.1 0.1 0.2 0.3 0.3 0.4 0.5 0.7 0.7 1.5 1 2.3 0.1 0.2 0.2 0.3 0.3 0.5 0.3 0.3 0.7 0.6 1 1l0.4 0.4c0.5 0.4 1 0.9 1.4 1.4 0.3 0.3 0.6 0.5 1 0.4 1.1 0.7 2.3 1.1 3.7 0.9 0-1.6 0.1-2.9 0.5-4.3z"/>
		<path d="m424.1 175.6c-0.3-0.2-0.5-0.4-0.8-0.6-0.9 1.1 0 1.1 0.7 1.3v0.3c0.9 0.6 0.8 1.8 1.6 2.5 0.3 0.2 0.6 0.4 1 0.6 0.2 0.1 0.5 0.2 0.7 0.3 0.6 0.4 0.8 0.2 1-0.4 0-0.3-0.1-0.6-0.1-0.8-0.6-0.4-1.1-0.7-1.6 0l-0.4-0.4c-0.6-1.2-0.7-2.5-2.1-2.8z"/>
		<path d="m404.8 166c-1-0.8-2-0.7-2.9 0.2-0.5 0.5-0.6 1.1-0.2 1.7 0.7 0.9 1.5 0.3 2.2 0.1 0.3-0.7 0.6-1.3 0.9-2z"/>
		<path d="m422.8 181.6c0.4 0 0.7 0.1 0.9 0.3v0.1c-0.2 0.4-0.4 0.8-0.1 1.3 0.1 0.2 0.3 0.3 0.4 0.5 0.3 0 0.6-0.1 0.8-0.1 0-0.1 0.1-0.1 0.1-0.2 0.4-0.6 0.8-1.3 1.2-1.9-0.1-0.3-0.3-0.5-0.4-0.8-0.6 0.2-0.9-0.1-1.3-0.5-0.2-0.5-0.7-0.7-1.1-0.6-0.7 0.2-0.4 0.9-0.5 1.4v0.5z"/>
		<path d="m420.2 177c0.4 0.5 0.8 1.1 1.2 1.6 0.5-1.5 0.2-1.9-1.2-1.6z"/>
		<path d="m270.2 141.3z"/>
		<path d="m273.5 140.9c-1.3-0.4-2.4-1.1-3.3 0.4 1-0.2 2.2 0.8 3.3-0.4z"/>
		<path d="m259.8 97.5c0.3-0.2 0.5-0.5 0.4-0.9 0-0.3-0.2-0.6-0.5-0.4-0.2 0.1-0.3 0.4-0.3 0.7-0.1 0.3 0 0.6 0.4 0.6z"/>
		<path d="m181.9 206.1c-1.2-0.4-2.1-1.1-3-1.8-1.5-1.3-3.2-2.1-5.3-2.2-2.2-0.1-4.4-0.2-6.2-1.8-0.9-0.8-2.2-1.2-3.5-1.1-0.4 0-0.8 0.1-1-0.3-0.2-0.2-0.4-0.4-0.7-0.4-0.1 0-0.2 0-0.3-0.1-0.6-1.8-1.5-3.4-2.2-5.1-0.3-0.4-0.6-0.8-1.2-0.7v-0.3c-0.4-0.9-1.3-1.2-1.9-1.8-0.5-0.6-1.1-0.9-1.8-0.5 0-0.1 0-0.2-0.1-0.3-1.6-1.7-3.1-2-4.8-0.8-0.9-1.3-2.4-2.2-3.4-3.4-0.2-0.3-0.6-0.2-0.9 0 0.2-1.2-1.1-1.4-1.7-2.1-0.9-0.8-2-1.3-2.9-2.1-1.3-0.4-2.6-0.1-3.9-0.1-1.8 0-3.6 0.1-5.1-1.2-1.4-0.6-2.7 0.4-4.1 0.3 0.2-0.1 0.4-0.3 0.5-0.7-0.4-1.7-1.4-1.4-2.5-0.8-0.7 0.7-1.5 1-2.3 1.4 0 0 0 0.1-0.1 0.1-2.2-0.2-2.7 1.8-3.8 3-0.9 0.8-1.5-0.1-2.2-0.4-2-0.8-3.3-0.5-4.1 1.2-0.4-0.3-0.8-0.3-1.2-0.1l-0.1 0.1c-0.3-0.1-0.7-0.3-1-0.4-0.2-0.3-0.4-0.5-0.6-0.8-0.2-0.2-0.5-0.4-0.7-0.6-0.8-1.8 0.1-3.6 0-5.4 0.8-2.6 0.2-3.4-2.4-3.8-1.6-0.2-3.2 0-4.7 0.1-0.2-0.1-0.4-0.3-0.5-0.4 0.4-0.6 0.5-1.3 0.4-2 0.2-0.6 0.4-1.1 0.7-1.7 0.7-0.3 0.8-1 0.8-1.6 0-1.1 0.4-1.9 1.3-2.5 0.4-0.7 0.2-1.2-0.4-1.6-3.9 0.4-4.7 0.5-5.4 2.4l-0.6 1.2c0 0.1 0 0.1-0.1 0.2-0.4-0.1-0.7 0.1-1 0.2-1.3 0.5-2.9 1.2-4.1 0.8-2.2-0.7-3.5-2.6-4.1-5-0.4-1.8 0.5-3.6-0.2-5.4 0.1-0.2 0.1-0.5 0.2-0.7 0.4-0.4 0.7-0.9 0.9-1.5 0-0.5 0.1-1-0.1-1.4 0-0.1 0-0.1 0.1-0.1 0.1-0.2 0.1-0.4 0.2-0.6 0.6-2.1 2.6-2.3 4.1-3.2 0.3-0.1 0.5-0.2 0.8-0.2 1.2-0.4 2.4-0.5 3.6 0 0.2 0.1 0.4 0.1 0.6 0.2 0.3 0.2 0.6 0.2 0.9 0.3 0.2 0.1 0.5 0 0.8-0.1 0.5-0.2 1-0.4 1.1-1l0.1-0.1c0.2-0.1 0.3-0.2 0.5-0.3 1.9-0.9 3.7-0.6 5.5 0 0.3 0.2 0.7 0.5 1.2 0.4 0.4 0.1 0.9 0.3 1.3 0.4 0.8 0.3 1.1 1.2 1.1 2.1 0 1.4 0.5 2.7 1.3 3.9 0.1 0.3 0.3 0.5 0.4 0.8 0 0.1 0.1 0.1 0.1 0.2l0.1 0.1c0.6 0.9 1.1 1 1.6 0 0.6-1.1 0.9-2.1 0.2-3.3-0.1-1.2-0.5-2.4-0.7-3.5v-0.1c-0.2-1.1-0.2-1.9-0.1-2.7 0.1-0.4 0.3-0.8 0.6-1.2s0.6-0.7 0.9-1.1c0.4-0.3 0.9-0.6 1.6-0.9 0.3 0 0.6 0 0.8-0.1 0-0.1 0.1-0.2 0.1-0.4 0.2-0.1 0.5-0.2 0.7-0.3 0.4-0.3 0.9-0.6 1.3-0.9 0.5-0.6 1.1-1 1.7-1.4 0.3 0 0.5 0 0.7-0.2 1.7-1.4 2-2.4 1.3-4 0.3 0 0.6-0.2 0.9-0.3 1.1-0.7 1.8-1.8 2.5-2.8 1.5-1.9 3-3.8 5.5-4.4 1.5-0.8 1.8-2.4 2.2-3.9 0.8-1.3 2.2-1.3 3.4-1.9 0.5-0.3 1-0.6 1.6-0.7 0.1 0 0.1-0.1 0.2-0.1 0 0.2 0 0.5 0.1 0.7 0.7 1.1 1.5 0.8 2.3 0.3 0.3-0.4 0.6-0.8 1-1.1 0.2-0.1 0.3-0.2 0.5-0.3 0.5-0.6 1.2-0.6 1.8-0.6 0.4-0.1 0.7-0.3 1-0.6 0-0.1 0-0.1 0.1-0.2h0.8c0.3-0.5 0.9-0.7 1.3-1 0.8-0.4 0.8-1.1 0.3-1.8s-1-0.2-1.4 0.2c-0.4 0.3-0.7 0.7-1.2 0.6-1.6-0.3-2.6-1.3-3-2.8 0.2-0.5 0.3-1.1 0.7-1.5 0.7-2.2-0.1-3.2-2.4-2.9 0.2-0.2 0.4-0.4 0.5-0.7 0.9 0.2 1.7 0.2 2.6 0.2h0.1c0.1 0.4 0.4 0.7 0.5 1.1 0.6-0.3 2.9 2.1 1.8-1.1 0.5 0 0.9 0 1.3 0.1 1.9-0.3 4.1 0.1 5-2.4 0.3 0.7-0.2 1.6 0.4 2.2-0.6 0.5-0.8 1.1-1.1 1.8-0.3-0.1-0.6-0.2-0.9-0.1-0.2 0.1-0.4 0.2-0.5 0.4-1.1 2.5-0.8 3.1 1.8 3.3 0.6 0.1 1.2 0.1 1.8 0.4-0.1 0.1-0.1 0.2-0.1 0.5 1 0.9 2.2 0.5 3.3 0.9h0.5c0.9 0 1.8-0.4 1.5-1.2-0.6-1.5 0.4-3.8-1.5-4.5-2.2-0.8-2.1-1.9-1.5-3.8 0.7-2.2 2-4.8-1-6.5-0.2-0.3-0.3-0.6-0.5-0.8-0.3-0.7-0.9-1-1.5-1.4-1.7-1.2-3.7-2.3-2.4-5 0.1-0.2 0-0.6-0.1-0.8-0.9-1.6-0.9-3.4-1.4-5.1 0-1.3 0-2.5-1.2-3.4-0.1 0.4-0.3 0.8-0.4 1.2-0.6 0.6-1.1 1.3-1.3 2.1-1.2 0.6-2.1 2.4-3.6 1.3s-1.3-3-0.9-4.7c0.1-0.3 0.3-0.7 0.3-1s-0.1-0.9-0.3-0.9c-2-0.6-2.2-3-3.7-4.1-1-0.7-2.3-0.3-3.4-0.8-2-0.8-2.4-0.3-3 1.8-0.6 2.4 0 5.2-2.4 7-0.6 0.4-0.5 1.3-0.2 2 1.5 3.1 1.1 5.6-1.6 7.5-0.2-0.1-0.5-0.1-0.8-0.1-0.6 0.3-1.4 0.4-1.7 1.1-0.1 0.2-0.1 0.3-0.2 0.5l-0.1 0.1c-0.5 1.5-0.4 3.1-0.4 4.6 0 0.1-0.1 0.3-0.1 0.4-0.1 0.2-0.1 0.4-0.2 0.6-0.1 0.5-0.2 0.9-0.4 1.2-0.5 0.3-1.1 0.4-1.6 0.1 0-0.1 0-0.3 0.1-0.4 0.2-1-0.9-1.6-0.9-2.5 0.4 0.1 0.7 0.2 0.8-0.3 0.2-0.6-0.3-0.7-0.8-0.8 0-0.2 0.1-0.5 0.1-0.7 0.1-0.6 0.3-1.2 0.4-1.9 0.5-2.3 0.2-2.7-2-3.1-1.1-0.2-2-0.5-2.7-1.4-1.3-0.9-2.2-2.3-3.5-3.2-1.9-1.2-4.4-1.9-4-5v-0.1s-0.1 0-0.1-0.1c-1.2-1.3-0.6-2.5-0.1-3.9 0.5-1.2 1.6-1.9 2.5-2.8 0.7-1.8 2.3-2.6 3.9-3.5 0.8-0.5 1.7-0.8 0.9-1.9h0.1s0.1-0.1 0.1-0.2v-0.2c2.3-0.1 4.5-0.4 6.3-2.2 0.4-0.4 0.7-0.9 0.6-1.5 0.2 0.2 0.5 0.4 0.8 0.5 0 0.1-0.1 0.1-0.1 0.2-0.3 0.7-0.7 1.4-1 2.1-0.5 0.9 0.2 1.5 0.6 2 0.5 0.7 1.1 0.2 1.6-0.2 1.3-1 2.5-1.3 3.6 0.3 0.2 0.2 0.6 0.3 0.9 0.5 0.2 0 0.3 0 0.5 0.1 1.6 0.1 1.7-1.1 1.3-2.1-0.5-1.4-1.1-2.9-2.4-3.8 1.3-1.4 2.8-2.5 4.2-3.6 0.9-0.8 1.9-1.7 0.5-2.9 0-0.1 0-0.2 0.1-0.3 1.2-1.1 2.3-2.2 2.4-4.1 0-0.8 0.7-0.9 1.3-1 0.5-0.3 1.2-0.3 1.3-0.8 0.6-0.1 0.9-0.5 1.1-0.9-0.2 0.3-0.3 0.6-0.3 1 0.2 0.8 0.5 1.5 0.8 2.2v1.4c-0.2 1.3-1.8 1-2.1 2.1-0.2 0.1-0.2 0.3-0.1 0.5 0.1 0 0.1 0.1 0.2 0.1 0.3 1.8 0.7 1.9 2.2 0.8l0.1 0.1c0.3 0.1 0.6 0.1 0.8 0s0.3-0.2 0.5-0.2h1.2 0.1c0.1 0.3 0.3 0.6 0.4 0.9-0.3 0.6-0.5 1.1-0.8 1.7-0.2 0.2-0.4 0.3-0.7 0.5-0.2 0.1-0.3 0.2-0.5 0.3-0.5 0.5-1.2 1-1.3 1.6-0.2 1.7-1.2 2-2.4 2.1-0.4 0-0.7-0.1-1.1-0.2-0.9-0.2-1.7-0.2-2.2 0.6-0.4 0.5-0.4 1-0.1 1.6 0.5 0.9 1.4 0.8 2.2 0.7 0.7-0.1 1.3-0.1 1.9 0 0.9 0.4 1.6 0.9 2.1 1.8 0 0.1 0.1 0.3 0.1 0.4 0.2 0.9 0.5 1.7 1 2.3 0.4 0.6 1 1.1 1.7 1.6s1.5 0.9 2.2 1.4c1.4 0.9 1.7 0.2 1.6-1.1 0.1-0.3 0-0.8 0.4-0.8 0.4 0.4 0.8 0.9 1.4 1.1 2.2-1.3 2.6-2.6 1.9-4.8-0.4-1.3-1.4-2.3-1.2-4 0.9 0.5 0.8 1.6 1.8 1.7 0.5 0.1 1 0.5 1.4 0.1 1.1-1.3 2.4-2.3 3.6-3.5 0.4-0.4 0.4-1.1-0.1-1.3-2-0.9-2.5-3.2-4.2-4.3-1.4-0.9-2-2.2-0.4-3.6 0.5-0.4 0.5-1 0.5-1.5 0.6-0.7 0.3-1.4 0-2 0-0.4-0.1-0.7-0.2-0.9-0.1-0.4-0.2-0.7-0.5-0.9-0.1 0-0.1-0.1-0.2-0.1-0.5-0.8-1.2-1.5-1.9-2.2-0.1-0.2-0.1-0.3-0.1-0.5-0.1-0.3-0.5-0.5-0.8-0.6-0.1 0-0.2-0.1-0.3-0.1-0.6-0.6-1.1-1.2-1.5-1.9 0-0.1-0.1-0.3-0.1-0.5-0.1-0.6-0.3-1.2-0.7-1.7-0.2-1.4 0.5-2.8-0.3-4.1-0.3-0.1-0.7-0.3-1-0.4 0-0.1-0.1-0.2-0.1-0.2-0.2-0.1-0.3-0.2-0.5-0.2h-0.7c-0.7-0.3-1.5-0.5-2.2-0.8-0.4 0-0.8-0.1-1.1 0h-0.8c-0.2 0-0.4 0-0.6 0.1-0.1 0.1-0.2 0.1-0.3 0.1-0.4-0.3-0.8-0.5-1-1h-0.4c-0.3-0.2-0.6-0.3-0.8-0.5v-0.4h-0.9-1.1c-0.3 0.1-0.7 0.2-0.9 0.5-0.1 0.1-0.3 0.2-0.4 0.4-0.9 0.7-1.9 1.3-2.3 2.4-0.2-0.1-0.4-0.1-0.6 0.1-0.7 1.1-1.4 2.2-2.1 3.4h-0.4c-0.4 1.4-0.2 2.9-0.6 4.3-0.2 0.6-0.1 1.3 0.6 1.6 0.7 0.6 1.4 1.1 2.1 1.7 0.4 0.2 0.7 0.6 1 0.9-1.1 0.4-0.5 1.8-1.1 2.5 0 0 0 0.1-0.1 0.2-0.4 0-0.7 0.1-1 0.4-0.6 1.3-1.5 2.3-2.9 2.8-0.2-0.4-0.1-0.8-0.1-1.1 0.1-0.2 0.1-0.4 0.1-0.6 1-0.7 0.7-1.8 0.7-2.8h-0.4c-0.7-0.3-1.4-0.7-1.9-1.2v-0.9c-0.2-0.6-0.4-1.2 0.1-1.8s0.5-1.3-0.2-1.9c0.5-1.5 0.9-3 0.2-4.5-0.2-0.5 0.1-0.9 0.3-1.4v-0.5c0.3-0.2 0.6-0.5 0.9-0.7 0.2-0.8 0.5-1.2 1.4-1.1 2.3 0.2 3-2 4.3-3.2 0.1-0.1 0.1-0.6 0-0.8-0.8-1.4-3.8-1.8-5-0.8-0.8 0.7-1.4 1.6-1.8 2.5-1.9 1.1-1-0.7-1.3-1.3 0.3-0.6 0.6-1.1 0.9-1.7 0.1-0.1 0.2-0.3 0.4-0.4-0.3-0.4-0.5-0.8-0.8-1.3-0.4 0.1-0.8 0.2-1.2 0.4-0.9 0-1.9 0.1-2.8 0.1v0.8c0 0.1 0 0.3-0.1 0.4-0.2 0-0.5 0.1-0.7 0.1 0 0.4 0 0.8 0.3 1.2-0.2 0.6 0.1 1.8-1.2 1.2-0.6-0.3-1.1-1.1-1.7-0.2-0.5 0.7-0.5 1.5 0 2.2 0.9 1.3 1.2 2.8 1.6 4.3-0.1 0.2-0.1 0.4 0 0.6 1.5 0.4 1.2 1.5 0.8 2.5-1.1 0.4-0.3 2.3-1.7 2.3-1.3 0-1.9 0.7-2.5 1.6-0.3 0-0.5 0.1-0.8 0.1-0.2 0.3-0.3 0.5-0.5 0.8h-0.8c-0.4 0.1-0.6 0.4-0.4 0.8 1.6 0.6 0.7 1.6 0.4 2.5-0.3 0.2-0.6 0.3-0.8 0.5h-0.4-1.8c-0.4-0.1-0.7-0.3-1.1-0.5-0.1-1.5-0.8-2.2-2.5-2.5v-0.1c0.3-0.3 0.8-0.4 1.1-0.7 0 0 0-0.1 0.1-0.1 0.1 0.1 0.2 0.1 0.3 0.2 1.4-0.2 3.3 0.8 3.4-1.8-0.1-0.3-0.3-0.5-0.5-0.7h0.7c2.3-0.1 2.7-0.7 1.8-2.9-0.6-1.3-1-2.7-1.9-3.8h0.6c0.2-0.1 0.3-0.2 0.5-0.4 0.5-3 1.5-5.7 4.3-7.3 0.3-0.5 0.3-1.1-0.2-1.5-0.4-0.2-0.8-0.3-1.2-0.5-0.4-0.3-1.1-0.6-1.3-0.2-0.8 1.1-1.8 1.4-3 1.6-0.2 0-0.2 0.5-0.3 0.7-0.3 0.7-0.6 1.4-0.8 2.2-0.8-0.2-0.7-1.1-1.2-1.6-0.9-0.4-1.3 0.9-2.2 0.7-0.1-0.3-0.3-0.5-0.4-0.8 0.1-1.2-0.4-1.9-1.6-2-0.2-0.2-0.4-0.3-0.5-0.5 0-0.5 0-1-0.4-1.3 0-1.4 0.5-2.8-0.4-4.1-0.9-0.7-2.4-0.3-2.9-1.8-1.6-1.2-4.5-1.3-5 0-1 2.6-3.3 4-5 6-0.2 0.3-0.5 0.6-0.6 0.9-0.4 1.2-0.4 2.6 0.3 3.4s2.1 0.4 3.1 0.1c0.9-0.3 1.1-1.6 2.1-1.9 0.5 0.1 1.1 0.1 0.9 0.9-0.8 0.5-0.9 1.2-0.8 2 0.1 0 0.2 0.1 0.3 0.1-0.1 0.4-0.3 0.8-0.4 1.2-0.1 0.1-0.2 0.2-0.4 0.3-0.1 0-0.1-0.1-0.2-0.1-1.5 0.6-1.5 1-0.4 2.4l0.4 0.4c0.4 0.1 0.9 0 1 0.7-0.6 0.3-1.4 0-1.8 0.6-1.3 0.5-0.8 1.6-0.8 2.5h0.4c0.4 0.5 0.8 1.1 1.5 1.3 0.9 0.2 1.1 0.9 1 1.7-0.6 0.7-0.3 1.4 0 2.1 0.3 0.2 0.7 0.2 1.1 0.2 1 0.4 2.2 0.6 3.2 0.3 0.1 0 0.2-0.1 0.4-0.1 0.6 0.2 1 0.6 1.1 1.5-0.1 0-0.2 0.1-0.3 0.1-0.5 0.2-0.9 0.6-1.1 1.1 0 0-0.1 0.1-0.1 0.2-0.2-0.1-0.4-0.3-0.6-0.4-0.2-0.4-0.3-0.8-0.7-1.1-0.8-0.5-1.6-0.3-2.4-0.3-1 0.1-2.2 0.1-2.3-1.4 1-1.4 0.3-2.2-1-2.8-0.6-0.3-1.3-0.4-2-0.7-0.9-1.1-2.3-1.6-2.9-3-0.2-1.1-1.1-1.9-1.9-1.4-1.8 1-1.6-0.4-1.8-1.3-0.9 0.2-1.3 0.8-1.7 1.3-0.3-0.2-0.7-0.5-1-0.7 0.1-0.7 0.3-1.5 0.4-2.2 0.1-1.3-0.6-0.6-1.1-0.4-0.7 0.2-1.4 0.5-2.1 0 0-0.1-0.1-0.2-0.1-0.3-1.7-1.2-3.1 0.3-4.7 0.3-0.6 0-1.3 0.9-1.6-0.4l0.1-0.1c-1.1-1.1-2.2 0-3.4 0-0.4 0.3-0.8 0.4-1.3 0.4-0.6-0.6-0.8-1.3-0.9-2.1-0.1-0.3-0.2-0.6-0.3-0.8-0.9-0.4-1.8-0.6-2.5-1.3-0.1 0.1-0.3 0.1-0.4 0.2-1.4-2.3-4.1-2.5-6-3.9-0.9-0.6-1-2.1-2.4-2.1-0.5-0.1-1.2-0.1-1.2-0.6-0.1-2.3-2.4-3.1-3.3-4.9-0.4-0.6-1-0.4-1.5-0.2-2.2 0.8-4.5 0.5-6.8 1.4-1.6 0.7-3.3 1.2-4.6 2.4-1.5 1.1-3 2.2-5.2 1.4-1.1-0.4-2.7 1.3-2.2 2.6 0.6 1.9 0.4 3.7 0.5 5.6 0.3 1 0.2 2.2 1.1 3-1.8 1.3-3.8 1.2-3.7-0.1 0.2-2.7-1.4-1.5-2.4-1.3-1.4 0.3-2.7 0.9-4.1 1.4-0.2 0.1-0.5 0.1-0.7 0.2 0 0.3 0.1 0.6 0.3 0.8v0.2c0.2 0.7-0.1 1.3-0.4 2-0.6 1.1-0.6 2.2 0.8 2.8 0.8 0.2 1.7 0 2.4 0.4 0.2 0.1 0.4 0.1 0.6 0.2 0.1 0 0.3 0 0.4 0.1s0.3 0.2 0.4 0.3c0.1-0.1 0.3-0.2 0.4-0.3 0.2 0 0.4-0.1 0.7-0.1 0.3-0.1 0.4-0.4 0.5-0.6 0.4 0 0.8-0.1 0.9 0.2 0.4 0.8-1.9 4.4-2.8 4.3-1.1-0.1-2 0.5-3 0.4-0.7 0.1-1.4-0.7-2.1-0.1-0.2 0.1-0.5 0.1-0.7 0.2-0.1 0.5-0.3 1-0.4 1.5-2 1.3-4.5 2.2-3.6 5.5 0.1 0.3-0.2 0.7-0.3 1-1.1 2.7 0.9 3.2 2.7 3.9-0.2 0.4-0.3 0.8-0.5 1.3-0.7 0.5-0.2 1.6-0.9 2.1 0.3 0.8 1.1 0.5 1.5 0.7 1.2 0.7 3.5 0.1 3.1 2.7-0.9 1.2-1.8 2.4-3.2 3.1-0.2 0.2-0.4 0.5-0.6 0.7-0.6 0.1-1.2 0.4-1.7 0.8-0.9 0.2-1.6 0.8-1.8 1.8-0.8-0.2-1.6-0.7-2.3-0.1-1.4 1.3-3.1 1.8-4.9 2.2-0.3 0.3-0.5 0.7 0 1 0.7 0.3 1.2 0 1.6-0.6 0.9-0.8 2.3-0.4 3.3-1.3 0.4-0.1 0.9-0.3 1.3-0.4 0.6 0 1.1-0.1 1.5-0.5 0.8-0.2 1.7-0.3 2.5-0.5 0.7-1.4 2.4-1.4 3.4-2.4 0.9 0 1.2-1.1 2-1.4 0.4 0.1 0.8 0.3 1.2 0.4-0.4 0.6-0.5 1.2 0 1.7s1.1 0.1 1.5-0.1c0.9-0.5 1.8-1 2.7-1.6-0.4-1.2-1.3-0.9-2.1-0.8-0.2-0.1-0.3-0.1-0.5-0.3h0.1c0.7-0.5 1.7-0.9 1.5-2l0.1-0.1c1.5 0 1.8-0.4 1.5-2.6 0 0 0.1 0 0.1-0.1 0.8 0.5 1.6 0.3 2.4-0.2 0.1-0.1 0.2-0.3 0.3-0.4-0.1 0.2-0.1 0.3-0.1 0.5 0 0.4 0.1 0.7 0.3 1-0.5 0.1-0.9 0.3-1.2 0.8 0.8 0.5 1.5 0.2 2.2-0.1 0.4 0.2 0.8 0.3 1.2 0.3 0.6 0 1.1-0.2 1.6-0.5 0.7-0.6 1.8-0.7 2.4-1.5 0.5 0.3 1.3 0.2 1.6 0.8 1.4 1.3 2.7 2.7 4.8 2.9 0.4 0 0.7 0.4 0.9 0.8 0.1 0.2 0.2 0.3 0.4 0.4 0.9 0.7 1.7 1.4 1.7 2.7 0.8 1.3 0.7 3.2 2.4 3.9h0.2l0.3 0.6v1.4c-0.1 0.7-0.3 1.3 0 2 0.5 0.9 0.9 1.9 0.8 3.1 0.1 0.1 0.1 0.1 0.2 0.1 0 0.1 0.1 0.2 0.2 0.3 0.5 0.1 0.3 1.3 1 0.9 0.1 0.1 0.1 0.1 0.2 0.1 0.1 0.1 0.3 0.1 0.4 0.1-0.1 0.8 0.4 1.2 1.2 1.3-0.1 0-0.2 0.1-0.3 0.1-0.7 0.8-1 1.7-0.1 2.5-0.2 2.1 0.8 4 0.7 6.1 0 0.3 0.2 0.5 0.4 0.6h-0.1c-0.3 0.2-0.5 0.4-0.6 0.8h-0.3c-1.1 0.8-0.8 1.8-0.4 2.7 0.4 0.8 1 1.5 1.3 2.4 0.1 0.2 0.2 0.4 0.3 0.5 1.7 1.6 0.7 3.6 0.8 5.5 0 0.6-0.3 1.2-0.1 1.7-0.1 0.2-0.1 0.3-0.2 0.5-1 3.3-2.5 6.5-3 10-1.2 2.3-0.4 4.5 0.2 6.7 0.4 0.3 0.6 0.7 0.8 1 0.1 0.5 0.2 1.1 0.3 1.6 0 0.6 0 1.3 0.1 1.9 0 0.1 0.1 0.3 0.1 0.4v0.2c0.4 1.9 0.9 3.7 3 4.5 1 0.4 2.1 1.1 2.1 2.5 0.3 0.4 0.5 0.8 0.7 1.3 0.6 1.7 0.8 3.5 1.9 5 0.8 1.1 2.1 2.1 0.5 3.6-0.2 0.2-0.1 0.6 0.1 0.7 2.2 0.9 2.9 2.9 3.4 5 0 0.2 0.4 0.4 0.6 0.5 0.4 0.4 0.7 0.9 1.1 1.3 0.3 0.4 0.5 1.3 1.2 0.8 0.6-0.4 0.1-1.1-0.3-1.4-0.9-0.6-1-1.6-1.4-2.5-0.3-2.7-1.9-5-3.1-7.3-0.6-1.1-1-2.2-1-3.4 0.1-0.1 0.3-0.2 0.4-0.4 0.5-0.3 0.9-0.3 1.3-0.2 0.3 0.3 0.5 0.6 0.6 1 0 0.3 0.1 0.7 0.2 1.1v0.7c0 0.1 0.1 0.1 0.1 0.2v0.5c0 1.4 0.8 2.3 1.6 3.3 0.9 1.2 2.8 1.8 2.3 3.9-0.1 0.3 0.3 0.6 0.6 0.8 1.3 0.8 2.1 2.2 3 3.3 1.1 1.5 1.9 3.1 1.2 5.1-0.3 1 0.2 2.1 1.1 2.7 2 1.3 4 2.7 6.3 3.6 0.8 0 1.5 0.4 2 0.9 1.6 0.3 3 1.2 4.6 1.2 1.5 0 3-0.5 4.1 1 1.4 1.8 3.4 2.6 5.5 3.1 1.7 0.4 3.5 1 4.5 2.7 0.2 0.1 0.3 0.1 0.5 0 0.3 0.2 0.5 0.5 0.8 0.7 0.1 0.7-0.2 1.5 0.9 1.7 0.4 0.2 0.8 0.4 1.2 0.5 1.1 0.7 1.4 2.7 3.3 2 0.3 0.1 0.5 0.1 0.8 0.2 0.2 0.4 0.4 0.8 0.6 1.1 0.6-0.3 1.9 1.1 1.9-0.7l0.5-0.5c0.8-0.2 1.5-0.1 2.1 0.4 1.3 1.8 2.1 3.7 1.5 6 0.8 1.2-0.1 1.9-0.9 2.5-0.7 0.6-1.4 1.1-1.4 2.1-2.3 1.2-3.4 4.1-2.5 6.5v1.6c-1.3 1.4-1.5 3.7-0.2 4.6 1.4 0.9 2.1 2.4 3.1 3.5 0.3 0.8 0.6 1.8 1.1 2.5 2.3 3.2 3 7.6 7 9.4 1.9 0.8 3.4 2.1 4.9 3.4 0.8 1 0.9 2.2 0.9 3.4 0.1 3.5 0.2 7.1 0.3 10.6v0.8c-0.8 2.8-0.8 5.7-0.5 8.6 0.2 2 0.8 4-0.4 5.9-0.1 1.6-0.6 3.1-0.9 4.6-0.5 0.3-0.3 0.8-0.3 1.2h0.4c1.1 2.2 0.2 4.5 0.4 6.8 0.1 0 0.3 0.1 0.4 0.1-0.3 0.6-0.5 1.3-0.8 1.9 0.5 0.4 0 1.6 1.1 1.7 0.2-1-0.2-2.1 0.4-3.1 0.2 0 0.3 0 0.5-0.1-0.6 1.3 0 2.8-0.2 4.1 0 0.6-0.2 1.2-0.1 1.8-0.5 0.5 1.1 0.2 0.4 0.8-0.3 0.4-0.6 0.9-1.1 1.1-0.4 0.1-0.7 0.3-0.9 0.6-0.1 0.4-0.3 0.8-0.3 1.2 0 0.2 0.1 0.4 0.1 0.6 0.3 0.8 1.7 0.5 1.7 1.6 0.2 0.3 0.3 0.5 0.5 0.8 0 0.2-0.1 0.3-0.1 0.5 0 0.1 0.1 0.3 0.1 0.4v1.3c0 0.4 0 0.9-0.1 1.3 0.4 0.1 0.8 0.3 1.3 0.4-0.1 0.7 0 1.4 0.4 2 0.1 0.2 0.3 0.3 0.4 0.5 0.2 0.6 0.3 1.1 0.5 1.7 0.4 1.2 1 0.7 1.6 0.3l0.6 0.6c-0.1 0.1-0.1 0.2-0.2 0.4-1.5 1.2-1.1 1.9 1.3 3 0.2 0.3 0.3 0.5 0.5 0.8h1.2c0.1-0.3 0.3-0.6 0.4-0.8h0.1c0.3 0.6 0.6 1.2 1.4 1.3-0.1 0.2-0.1 0.4-0.1 0.6-0.7-0.5-1.3-0.1-1.7 0.6 0.8 1.5 2.6 1 3.8 2 0.3 0.2 1 0.1 0.7-0.7 0.9 0.2 1.5-0.6 2.4-0.6 0.5 0 1-0.2 1.1-0.8 0-0.5-0.5-0.6-0.9-0.7-1-0.4-2-0.9-2.8-1.7-0.2-0.6-0.4-1.2-0.9-1.7l-0.9-0.9v-0.3c0.1-0.1 0.2-0.1 0.4-0.1v-0.4c-0.1-0.5-0.5-0.7-0.9-0.9h-0.1c-1.2-2.8 0.8-4.8 2-7 0.8-1.5 1.4-2.5-0.7-3.4-2-0.9-1.9-2.3-0.2-3.6 0.6-0.5 1.3-1.1 1.2-2.1-0.1-1.3 0.5-2.4 0.9-3.6 0.3 0.2 0.5 0.5 0.9 0.4 0.3-0.1 0.3-0.4 0.1-0.7-0.4-0.5-0.8-0.2-1.3-0.1-0.3-0.1-0.6-0.2-0.9-0.3 0.5-0.7-1.3-2.7 1.1-2.2 2.1 0.5 2.7-0.2 2.6-2.2-0.1-1.5 0.2-2.2 2.1-2.1 2.5 0.2 4.4-1.1 5-2.9 0.5-1.7-0.8-3-1.3-4.5 1.5-0.6 3.1 0.7 4.6-0.4 0.2-0.3 0.4-0.5 0.6-0.8 0.5-0.6 1-1.2 1.6-1.9l0.2-0.2c0.3-0.4 0.3-0.8 0.2-1.3l0.1-0.1c0.3-0.4 0.5-0.7 0.8-1.1h0.4c0.4-0.4 0.8-0.7 0.9-1.4 0.8-0.5 1.1-1.2 1.2-2.1 0.7-1.2 1.3-2.3 2-3.5 0.7-1.5 0-3.4 1.4-4.6 0.4-0.4 0.8-0.8 1.2-1.1 0.1 0 0.3-0.1 0.4-0.1 0.5 0.1 1.1-0.1 1.6-0.1 0.6-0.1 1.1-0.4 1.5-0.7 0.5-0.3 0.8-0.8 1.4-0.9 0.2 0 0.4-0.1 0.6-0.1 1-0.1 2-0.3 2.1-1.4 0.1-0.1 0.2-0.1 0.3-0.2 0.6 0.1 1.2-0.2 1.3-0.7 0.4-1.5 1.5-2.7 1.9-4.1 0.7-2.2 1.2-4.4 1-6.8-0.4-1.6-0.3-3.1 1.2-4.1 0.4-0.3 0.6-0.8 0.9-1.2 0.4-0.5 0.6-1.2 1-1.7 0.5-0.5 1-1 1.1-1.8 0-0.3-0.1-0.6-0.4-0.8 1.8-0.8 1.3-2.5 1.3-3.9-0.8-2.3-1.4-3.7-2.9-4.2zm-99.3-150c0.1 0 0.3 0 0.4-0.1h0.3c0.4 0.3 1.2-0.1 1.3 0.8 0.1 0.6 0.4 1.2 1 1.5 0.4 0.1 0.8 0.1 1.2 0.2v0.1c-0.4 0.1-0.8 0.2-1.2 0.1-0.6-0.1-1.1 0-1.5 0.4-0.1 0.1-0.3 0.3-0.4 0.5-0.6 0-1.2 0-1.8 0.1-0.4 0-0.9 0.6-1.3 0.4l0.1-0.1c0.4-0.3 0.7-0.7 0.9-1.2 0-0.1 0.1-0.2 0.1-0.3 0.3-0.2 0.6-0.4 0.6-0.9 0-0.3-0.2-0.5-0.5-0.6-0.1-0.2-0.2-0.3-0.3-0.4 0 0-0.1 0-0.1-0.1s0-0.1 0.1-0.2c0.3-0.1 0.7 0 1.1-0.2zm31.9 56.8c-0.7 1.5-1.7 1.8-3.1 0.8-0.6-0.4-1.3-0.3-1.8-0.4 1.1-0.9 2.7-0.9 3.8-1.9-0.3 1 0 1.5 1.1 1.5zm-23.2-21.7h-0.1v-0.1c0 0.1 0 0.1 0.1 0.1zm-2.5-18c-0.2 0.1-0.4 0.2-0.5 0.3s-0.2 0.2-0.3 0.4c-0.3 0-0.6 0.1-0.8 0.2-0.3-0.1-0.5-0.1-0.8-0.2-0.8 0.2-1.6 0.4-2.4 0.7 1-0.8 2-1.5 3.3-1.7 0.4 0 0.8 0 1.2-0.1 0.1 0.1 0.2 0.2 0.3 0.4zm22.5 46.5c0 0.1-0.1 0.3-0.1 0.5-0.2 0.2-0.3 0.5-0.4 0.8h-0.1c0.3-0.6 0.4-1.3 0.8-1.7-0.1 0.1-0.2 0.2-0.2 0.4zm-6.7-24.6v0c0-0.1 0.1 0 0 0 0.1 0 0.1 0 0 0zm13.2 25.3c-0.4-1.3-0.1-1.6 1.6-1.7 0 0.1 0.1 0.1 0.1 0.2-1.2 0.2-1.7 0.6-1.7 1.5zm-36.9 39c0.1 0.1 0.1 0.2 0.1 0.3 0-0.1-0.1-0.2-0.1-0.3zm61.4-104.2c0 0.1-0.1 0.2-0.1 0.2s0-0.1 0.1-0.2zm12.3 1.9c0-0.1 0-0.1 0.1-0.2-0.1 0-0.1 0.1-0.1 0.2zm-34.9-0.2c-0.1 0.1-0.1 0.2-0.2 0.2l-0.5 0.5c-0.2-0.1-0.3-0.3-0.2-0.8l0.2-0.2c0.2 0.2 0.4 0.3 0.7 0.3zm-18.9-21.1v0l0.1-0.1c-0.1 0-0.1 0-0.1 0.1zm-49.1 46.2c0.1 0.1 0.1 0.2 0.2 0.3-0.1-0.1-0.1-0.2-0.2-0.3zm87.2 211.4v0zm13.2-57.5c-0.1 0 0 0 0 0zm0.1 0v0c0 0.1-0.1 0.1-0.1 0.1l0.1-0.1zm-25.5-54.7zm4.6 36.5c0 0.1 0.1 0.1 0.1 0.2 0 0-0.1 0-0.1 0.1v-0.3z"/>
		<path d="m387.7 201.1c0.1 0.5 0.5 0.6 0.8 0.7v-0.3l-0.7-0.7c0 0.2-0.1 0.3-0.1 0.3z"/>
		<path d="m419.8 156c-0.6-0.2-0.9 0.2-1.2 0.6-1.3 1.8-1.1 3.3 0.7 5.4 0.3-1.7 0.6-3.3 0.8-5 0.2-0.4 0.1-0.8-0.3-1z"/>
		<path d="m213.1 81.1c1.6-0.1 2.8-1.2 4-2.1 0.9-0.6 1.2-1.6 0.7-2.6-0.6-1.1-1.2-2.4-2.7-2.2-1.2 0.2-2.4 0.6-3.6 0.9-1.1 0.1-2.3 1-3.3-0.6-0.3-0.5-1.2-0.3-1.7 0.2-0.2 0.2-0.5 0.6-0.5 0.6 0.8 0.9 0.7 1.9 0.8 3 0.1 1.3 0.3 3.2 2.6 2.8 1.1 0.9 2.4 0.9 3.7 0z"/>
		<path d="m51.7 91.1c-0.8 1-0.4 2 0 3.3 0.8-1.1 1.4-2 0.9-3.2-0.1-0.3-0.6-0.4-0.9-0.1z"/>
		<path d="m126.7 95.1l0.4 0.4c0.6-0.2 1.3-0.2 1.5-1 0.1-0.3-0.1-0.5-0.4-0.6-0.9-0.1-1.3 0.4-1.5 1.2z"/>
		<path d="m126.3 169.4c0.1 0.1 0.1 0.1 0.2 0.1 0.7 0.4 1.4 0.5 2.3 0.1 1.2-0.5 2.5-0.8 3.8-0.6 0.1-0.2 0.2-0.3 0.4-0.5-0.7-0.4-1.4-0.9-2-1.3-1.2-1-2.5-0.7-3.9-0.7-0.4-0.1-0.8-0.3-1.1 0.1-0.2 0.3 0.1 0.5 0.3 0.7 0 0.1 0.1 0.2 0.1 0.4 0 0.4-0.1 0.8-0.1 1.3-0.9-0.2-1.8-0.4-2.8-0.3v0.3c0.8 0.6 1.8 0.2 2.8 0.4z"/>
		<path d="m131.1 79.4c0 0.1 0.3 0.4 0.4 0.4 0.9-0.1 1-0.8 1-1.5v-0.2c-0.8 0-1.4 0.3-1.4 1.3z"/>
			<polygon points="135.9 76.8 135.9 76.8"/>
		<path d="m135.2 75.8c-0.1 0-0.3 0.1-0.3 0.2-0.1 0.7 0.5 0.7 0.9 0.8 0-0.5 0.1-1-0.6-1z"/>
		<path d="m150.1 82.3c0.1 0.3 0.3 0.6 0.4 0.9 0.9-0.4 1-0.9 0-1.3-0.1 0.2-0.3 0.3-0.4 0.4z"/>
		<path d="m136.6 75.6c0 0.1 0.2 0.4 0.3 0.4 0.5 0 0.5-0.5 0.6-0.9-0.3 0.1-0.8 0-0.9 0.5z"/>
		<path d="m141 58c-0.7-0.2-1.2 0.3-1.7 0.5 0.1 0.5 0.4 0.7 0.8 0.9 0.4-0.3 1.1-0.5 0.9-1.4z"/>
		<path d="m359.1 183.8c-1.1 0.3-0.8 1.4-1 2.4 0.3 1.1-0.1 2.7 1.6 2.9 1 0.1 1.6-0.8 1.7-1.8 0-1-1.7-3.6-2.3-3.5z"/>
		<path d="m122.1 166.5c0.5-0.1 1.3 0 1.4-0.7 0.2-0.7-0.6-0.8-1-1.2-0.3-0.2-0.5-0.3-0.8-0.5-0.7-0.1-1.4-0.3-2.1-0.4-0.6-0.3-1.1-1-1.7 0l-0.3 0.9c1.5 0.7 2.5 2.5 4.5 1.9z"/>
		<path d="m129.6 76.4c-1.3-0.1-2.5-0.1-2.8 1.6 1.3 0.2 2.5 0.1 2.8-1.6z"/>
		<path d="m111.3 161.2c-0.8 0-1.5 0.1-2 0.7-0.5 0.5-0.3 0.8 0.3 1 0.6-0.4 1.1-0.8 1.7-1.1 2 0.6 3.8 1.9 6.4 1.2-0.6-0.5-1-0.9-1.4-1.2-1.7-0.5-3.3-1.3-5-0.6z"/>
		<path d="m118.3 169.4c0 0.4 0.3 0.6 0.7 0.6s0.7-0.1 0.8-0.5c0-0.4-0.3-0.6-0.6-0.6-0.5 0.1-0.9 0.1-0.9 0.5z"/>
		<path d="m304.3 223.9c-1.4 0.3-2.1 1.5-2 3-0.4 0.5-0.1 0.8 0.4 0.9 0.1 1.4-0.1 2.8-1 4-1.3 1.7-0.9 3.5-0.5 5.3 0.3 1.4 1.4 2 2.9 1.7 0.8-0.2 1.6-0.6 2.3-0.8 1.2-3.4 2.4-6.7 3.6-10.1h1c0-0.1 0.1-0.3 0.1-0.4-0.2-0.3-0.3-0.5-0.5-0.8 0.3-1 0.4-2.1 0.8-3 0.8-2 0.7-3.8-0.8-5.4-1.6 2.3-3.1 5-6.3 5.6z"/>
		<path d="m247.2 132.4c0.1 0.6 0 1.4 0.9 1.4 0.7 0 0.7-0.7 0.8-1.3 0.1-0.9 0-1.8-0.5-2.6l0.3-0.6c0.2-0.7 0.5-1.5-0.2-2.1-0.3-0.3-0.7-0.1-0.9 0.2-0.5 0.8-0.4 1.6 0.2 2.2l0.3 0.3c-0.6 0.7-1 1.5-0.9 2.5z"/>
		<path d="m142.4 182c0.3 0.2 0.6 0.3 1 0.5v-1.3h-0.4c-0.7-0.1-0.7 0.3-0.6 0.8z"/>
		<path d="m134.6 169.4c-0.1 0.5 0.4 0.7 0.8 0.7 0.5 0.1 1.1 0.1 1.4-0.5 0-0.6-0.4-0.7-0.8-0.7-0.5 0-1.2-0.2-1.4 0.5z"/>
	</g>
</svg>
