<?xml version="1.0" encoding="utf-8"?>
<!-- Generator: Adobe Illustrator 21.0.0, SVG Export Plug-In . SVG Version: 6.00 Build 0)  -->
<svg version="1.1" id="Layer_1" xmlns="http://www.w3.org/2000/svg" xmlns:xlink="http://www.w3.org/1999/xlink" x="0px" y="0px"
	 viewBox="0 0 24 24" style="enable-background:new 0 0 24 24;" xml:space="preserve">
<path style="fill: currentColor;" d="M19.5,4.2h-15C1.9,4.2,0,6.1,0,8.7v6.6c0,2.6,2.1,4.5,4.5,4.5h15c2.5,0,4.5-2,4.5-4.5V8.7
	C24,6.1,21.9,4.2,19.5,4.2z M23,17.5c-0.2,0.1-0.2,0.1-0.3,0.1l0,0c-0.2,0-0.3,0-0.3-0.1l-6.3-5.7l-3.6,3c-0.3,0-0.3,0.2-0.5,0.2
	c-0.1,0-0.3,0-0.3-0.2l-3.6-3l-6,5.5c-0.2,0-0.2,0.2-0.3,0.2l0,0c-0.1,0-0.3,0-0.3-0.2c-0.2-0.1-0.2-0.1-0.2-0.3l0,0
	c0-0.1,0-0.3,0.2-0.3l6-5.4L1.8,6.6c-0.1-0.1-0.3-0.5,0-0.8c0.1-0.1,0.4-0.3,0.8,0L3,6.1l9,7.5l9.2-7.5l0.4-0.4
	c0.2-0.2,0.6-0.2,0.8,0c0.2,0.1,0.2,0.6,0,0.7l-5.5,4.6l6.1,5.7c0.2,0.1,0.2,0.1,0.2,0.3l0,0C23.1,17.2,23,17.4,23,17.5z"/>
</svg>
