<?xml version="1.0" encoding="utf-8"?>
<!-- Generator: Adobe Illustrator 21.0.0, SVG Export Plug-In . SVG Version: 6.00 Build 0)  -->
<svg version="1.1" id="Layer_1" xmlns="http://www.w3.org/2000/svg" xmlns:xlink="http://www.w3.org/1999/xlink" x="0px" y="0px"
	 viewBox="0 0 24 24" enable-background="new 0 0 24 24" xml:space="preserve">
<g>
	<path style="fill: currentColor;" d="M24,12.3C24,5.6,18.6,0,12,0S0,5.6,0,12.3c0,5.4,3.4,10,8.1,11.7c0.3-0.2,0.6-0.5,0.6-0.9
		c0-0.8,0-2.4,0-2.4s-0.5,0-1.2,0c-1.8,0-2.4-1.2-2.7-2c-0.3-0.9-0.9-1.3-1.3-1.7c-0.3-0.1-0.4-0.4,0-0.4c1.7-0.3,2.1,1.9,3.2,2.2
		c0.8,0.3,1.8,0.1,2.2-0.2c0-0.8,0.6-1.3,0.9-1.6c-2.9-0.3-4.5-1.4-5.4-2.9v-0.1l-0.3-0.4v-0.2c-0.3-0.9-0.5-1.8-0.5-2.9
		C3.6,8.8,4.2,8.1,5,7C4.4,4.9,5.2,3.6,5.2,3.6s1.2-0.3,3.5,1.5c1.2-0.6,4.6-0.6,6.1-0.2c0.9-0.6,2.7-1.6,3.4-1.4
		c0.2,0.3,0.6,1.2,0.3,3.3c0.3,0.5,1.5,1.4,1.5,4.1c0,1-0.1,1.8-0.3,2.5l-0.1,0.3c0,0,0,0.2-0.2,0.3l0,0.2c-0.9,1.8-2.5,2.5-5.2,2.8
		c0.9,0.6,1.2,1.4,1.2,3.3s0,2.2,0,2.7c0,0.5,0.3,0.8,0.6,0.9C20.5,22.3,24,17.7,24,12.3z"/>
</g>
</svg>
