<?xml version="1.0" encoding="utf-8"?>
<!-- Generator: Adobe Illustrator 21.0.0, SVG Export Plug-In . SVG Version: 6.00 Build 0)  -->
<svg version="1.1" id="Layer_1" xmlns="http://www.w3.org/2000/svg" xmlns:xlink="http://www.w3.org/1999/xlink" x="0px" y="0px"
	 viewBox="0 0 24 24" style="enable-background:new 0 0 24 24;" xml:space="preserve">
<g>
	<g>
		<path style="fill: currentColor;" d="M18.4,4.2c-0.8,0-1.4,0.6-1.4,1.4S17.6,7,18.4,7s1.4-0.6,1.4-1.4S19.2,4.2,18.4,4.2z M12,5.8
			c-3.4,0-6.2,2.8-6.2,6.2s2.8,6.2,6.2,6.2s6.2-2.8,6.2-6.2S15.4,5.8,12,5.8z M12,16c-2.2,0-4-1.8-4-4s1.8-4,4-4s4,1.8,4,4
			S14.2,16,12,16z M23.9,7.1c0-1-0.2-2-0.6-3c-0.6-1.6-1.9-2.9-3.5-3.5c-0.9-0.3-1.9-0.5-2.9-0.6c-1.2,0-1.6,0-4.9,0S8.3,0,7.1,0.1
			c-1,0-2,0.2-2.9,0.6C2.5,1.3,1.3,2.5,0.6,4.1C0.3,5.1,0.1,6,0.1,7C0,8.3,0,8.7,0,12s0,3.7,0.1,4.9c0,1,0.2,2,0.6,2.9
			c0.6,1.6,1.9,2.9,3.5,3.5c0.9,0.4,1.9,0.6,2.9,0.6C8.3,24,8.7,24,12,24s3.7,0,4.9-0.1c1,0,2-0.2,2.9-0.6c1.6-0.6,2.9-1.9,3.5-3.5
			c0.4-0.9,0.5-1.9,0.6-2.9C24,15.7,24,15.3,24,12S24,8.4,23.9,7.1z M21.8,16.8L21.8,16.8c0,0.8-0.2,1.5-0.4,2.2
			c-0.4,1-1.2,1.9-2.3,2.3c-0.7,0.3-1.5,0.4-2.2,0.4c-1.3,0.1-1.6,0.1-4.9,0.1s-3.6,0-4.9-0.1c-0.8,0-1.5-0.1-2.2-0.4
			C3.8,20.9,3,20.1,2.6,19c-0.3-0.7-0.4-1.5-0.4-2.2c-0.1-1.3-0.1-1.6-0.1-4.9s0-3.6,0.1-4.9c0-0.8,0.1-1.5,0.4-2.2
			C3,3.8,3.8,3,4.9,2.6c0.7-0.3,1.5-0.4,2.2-0.4C8.3,2.1,8.7,2.1,12,2.1s3.6,0,4.9,0.1c0.8,0,1.5,0.1,2.2,0.4c1,0.4,1.9,1.2,2.3,2.3
			c0.3,0.7,0.4,1.5,0.4,2.2c0.1,1.3,0.1,1.6,0.1,4.9C21.8,15.2,21.8,15.5,21.8,16.8z"/>
	</g>
</g>
</svg>
