<?xml version="1.0" encoding="utf-8"?>
<!-- Generator: Adobe Illustrator 21.0.0, SVG Export Plug-In . SVG Version: 6.00 Build 0)  -->
<svg version="1.1" id="Layer_1" xmlns="http://www.w3.org/2000/svg" xmlns:xlink="http://www.w3.org/1999/xlink" x="0px" y="0px"
	 viewBox="0 0 24 24" style="enable-background:new 0 0 24 24;" xml:space="preserve">
<g>
	<g>
		<path style="fill: currentColor;" d="M2.9,0C1.3,0,0,1.3,0,2.9c0,1.6,1.3,2.9,2.9,2.9c1.6,0,2.9-1.3,2.9-2.9C5.8,1.3,4.5,0,2.9,0z M0.4,24h5V8h-5
			V24z M18,7.6c-2.4,0-4,1.3-4.7,2.6h-0.1V8H8.5v16h5v-7.9c0-2.1,0.4-4.1,3-4.1c2.6,0,2.6,2.4,2.6,4.3V24h5v-8.8
			C24,10.9,23.1,7.6,18,7.6z"/>
	</g>
</g>
</svg>
