<?xml version="1.0" encoding="utf-8"?>
<!-- Generator: Adobe Illustrator 21.0.0, SVG Export Plug-In . SVG Version: 6.00 Build 0)  -->
<svg version="1.1" id="Layer_1" xmlns="http://www.w3.org/2000/svg" xmlns:xlink="http://www.w3.org/1999/xlink" x="0px" y="0px"
	 viewBox="0 0 24 24" style="enable-background:new 0 0 24 24;" xml:space="preserve">
<path style="fill: currentColor;" d="M17,24l-3.2-3.2c2.8-2.2,5.2-6.5,5.5-9.9c-0.1,0-0.7,0.2-1.1,0.2c-2.4,0-4.2-2.3-4.2-5.4C14,2.5,16.1,0,18.6,0
	C21.5,0,24,2.9,24,8.1C24,14.5,21,20.6,17,24z M3.2,24L0,20.8c2.8-2.2,5.2-6.5,5.5-9.9c-0.2,0-0.8,0.2-1.1,0.2
	c-2.4,0-4.2-2.3-4.2-5.4C0.2,2.5,2.2,0,4.8,0c2.8,0,5.4,2.9,5.4,8.1C10.2,14.5,7.2,20.6,3.2,24z"/>
</svg>
