<?xml version="1.0" encoding="utf-8"?>
<!-- Generator: Adobe Illustrator 21.0.0, SVG Export Plug-In . SVG Version: 6.00 Build 0)  -->
<svg version="1.1" id="Layer_1" xmlns="http://www.w3.org/2000/svg" xmlns:xlink="http://www.w3.org/1999/xlink" x="0px" y="0px"
	 viewBox="0 0 24 24" style="enable-background:new 0 0 24 24;" xml:space="preserve">
<path style="fill: currentColor;" d="M7,0l3.2,3.2C7.4,5.4,5,9.7,4.7,13.1c0.1,0,0.7-0.2,1.1-0.2c2.4,0,4.2,2.3,4.2,5.4c0,3.2-2.1,5.7-4.7,5.7
	C2.5,24,0,21.1,0,15.9C0,9.5,3,3.4,7,0z M20.8,0L24,3.2c-2.8,2.2-5.2,6.5-5.5,9.9c0.2,0,0.8-0.2,1.1-0.2c2.4,0,4.2,2.3,4.2,5.4
	c0,3.2-2.1,5.7-4.7,5.7c-2.8,0-5.4-2.9-5.4-8.1C13.8,9.5,16.8,3.4,20.8,0z"/>
</svg>
