<?xml version="1.0" encoding="utf-8"?>
<!-- Generator: Adobe Illustrator 21.0.0, SVG Export Plug-In . SVG Version: 6.00 Build 0)  -->
<svg version="1.1" id="Layer_1" xmlns="http://www.w3.org/2000/svg" xmlns:xlink="http://www.w3.org/1999/xlink" x="0px" y="0px"
	 viewBox="0 0 24 24" enable-background="new 0 0 24 24" xml:space="preserve">
<path style="fill: currentColor;" d="M24,4.5c-0.9,0.5-1.8,0.6-2.9,0.8c1.1-0.6,1.8-1.5,2.1-2.7c-0.9,0.6-2,0.9-3.2,1.2c-0.9-0.9-2.2-1.5-3.6-1.5
	c-2.6,0-4.8,2.2-4.8,4.9c0,0.5,0,0.8,0.2,1.1C7.8,8.1,4,6.2,1.6,3.2C1.2,3.9,1,4.7,1,5.7c0,1.7,0.9,3.1,2.2,4.1
	C2.5,9.8,1.8,9.5,1,9.2l0,0c0,2.4,1.6,4.4,3.9,4.8c-0.4,0.1-0.9,0.1-1.3,0.1c-0.3,0-0.6,0-0.9-0.2c0.6,1.9,2.4,3.4,4.7,3.4
	c-1.6,1.4-3.8,2.1-6.1,2.1c-0.5,0-0.8,0-1.2,0c2.2,1.3,4.8,2.2,7.5,2.2c9,0,14-7.5,14-14c0-0.1,0-0.5,0-0.6
	C22.5,6.5,23.4,5.6,24,4.5z"/>
</svg>
