<?xml version="1.0" encoding="utf-8"?>
<!-- Generator: Adobe Illustrator 21.0.0, SVG Export Plug-In . SVG Version: 6.00 Build 0)  -->
<svg version="1.1" id="Layer_1" xmlns="http://www.w3.org/2000/svg" xmlns:xlink="http://www.w3.org/1999/xlink" x="0px" y="0px"
	 viewBox="0 0 24 24" style="enable-background:new 0 0 24 24;" xml:space="preserve">
<path style="fill: currentColor;" d="M20.4,3.4C18.3,1.2,15.1,0,12.1,0C5.4,0,0,5.4,0.2,12c0,2.1,0.6,4,1.5,5.8L0,24l6.3-1.7
	c1.8,0.9,3.8,1.5,5.7,1.5l0,0c6.6,0,11.9-5.4,11.9-12C23.8,8.7,22.6,5.7,20.4,3.4z M12.1,21.8L12.1,21.8c-1.8,0-3.5-0.5-5-1.3
	l-0.5-0.2l-3.8,0.9l0.9-3.8L3.5,17C0.6,12.3,2,6.3,6.6,3.5S17.4,2,20.2,6.6s1.5,10.6-3.2,13.5C15.7,21.3,13.9,21.8,12.1,21.8z
	 M17.8,14.5l-0.8-0.3c0,0-1.1-0.5-1.7-0.8h-0.2c-0.3,0-0.5,0-0.6,0l0,0c0,0,0,0-0.9,1c0,0.2-0.2,0.2-0.3,0.2l0,0c0,0-0.2,0-0.3-0.2
	h-0.5l0,0c-0.6-0.3-1.4-0.6-1.8-1.2c-0.2-0.1-0.3-0.3-0.5-0.4C10,12.5,9.5,12,9.2,11.4v-0.1c0,0,0-0.1-0.2-0.3c0-0.2,0-0.3,0-0.3
	s0.3-0.3,0.5-0.4c0.2-0.2,0.2-0.3,0.3-0.5C10,9.6,10,9.3,10,9.1C10,8.9,9.1,7,8.9,6.8C8.8,6.5,8.6,6.3,8.5,6.3H8.3
	c-0.2,0-0.3,0-0.5,0c-0.2,0-0.3,0-0.5,0l0,0c-0.2,0-0.3,0.2-0.5,0.3C6.8,6.8,6.6,6.9,6.5,7C6,7.6,5.9,8.4,5.9,9.1l0,0
	c0,0.5,0,0.9,0.3,1.4v0.1C6.8,12,7.5,13,8.6,14.1l0.3,0.3c0.2,0.2,0.5,0.3,0.5,0.4c1.4,1.2,2.9,2,4.7,2.4c0.2,0,0.5,0,0.6,0.1l0,0
	c0.2,0,0.5,0,0.6,0c0.3,0,0.8-0.1,0.9-0.3c0.2-0.2,0.3-0.2,0.5-0.3l0.2-0.2c0.2-0.1,0.3-0.1,0.5-0.3c0.2-0.1,0.3-0.3,0.3-0.5
	c0.2-0.3,0.2-0.6,0.3-0.9C17.8,14.9,17.8,14.7,17.8,14.5C18,14.7,18,14.7,17.8,14.5z"/>
</svg>
